<?xml version="1.0" encoding="utf-8"?>
<!-- Generator: Adobe Illustrator 23.0.3, SVG Export Plug-In . SVG Version: 6.00 Build 0)  -->
<svg version="1.1" id="Layer_1" xmlns="http://www.w3.org/2000/svg" xmlns:xlink="http://www.w3.org/1999/xlink" x="0px" y="0px"
	 viewBox="0 0 1920 778.8" style="enable-background:new 0 0 1920 778.8;" xml:space="preserve">
<style type="text/css">
	.st0{opacity:0.5;}
	.st1{clip-path:url(#SVGID_2_);}
	.st2{clip-path:url(#SVGID_4_);}
	.st3{fill:none;stroke:#3573A3;stroke-width:31.2522;stroke-linecap:round;stroke-linejoin:round;stroke-miterlimit:10;}
	.st4{fill:#FFFFFF;}
	.st5{fill:#429368;}
	.st6{fill:#4692CE;}
	.st7{font-family:'BerlinSansFB-Reg';}
	.st8{font-size:63.1207px;}
	.st9{letter-spacing:2.1;}
	.st10{fill:#EB6A26;}
	.st11{fill:#0A2240;}
	.st12{clip-path:url(#SVGID_6_);fill:url(#SVGID_7_);}
	.st13{fill:#BE263B;}
	.st14{font-family:'ArialMT';}
	.st15{font-size:55.1613px;}
</style>
<image style="display:none;overflow:visible;enable-background:new    ;" width="1911" height="1554" xlink:href="3455A100.png"  transform="matrix(8.667253e-02 0 0 8.667253e-02 878 230.8021)">
</image>
<g>
	<g>
		<g class="st0">
			<g>
				<g>
					<defs>
						<rect id="SVGID_1_" x="470.1" y="344.4" width="979.7" height="199"/>
					</defs>
					<clipPath id="SVGID_2_">
						<use xlink:href="#SVGID_1_"  style="overflow:visible;"/>
					</clipPath>
					<g class="st1">
						<g>
							<defs>
								<rect id="SVGID_3_" x="470.1" y="344.4" width="979.7" height="199"/>
							</defs>
							<clipPath id="SVGID_4_">
								<use xlink:href="#SVGID_3_"  style="overflow:visible;"/>
							</clipPath>
							<g transform="matrix(1 0 0 1 -3.051758e-05 7.629395e-06)" class="st2">
								
									<image style="overflow:visible;enable-background:new    ;" width="694" height="142" xlink:href="3455A101.png"  transform="matrix(1.4018 0 0 1.4018 473.591 344.3495)">
								</image>
							</g>
						</g>
					</g>
				</g>
			</g>
		</g>
		<g>
			<path class="st3" d="M516.6,374.8c1.3-0.4,2.7-0.5,4.2-0.5c12.7,0,18.6,12.1,18.6,33c0,28.1-9.2,36.6-19.2,36.6
				c-1,0-2.4,0-3.6-0.3V374.8z M502.1,454.9c3.3,0.5,8.4,1,13.4,1c11.8,0,20.8-3.1,27-9.4c7.1-6.8,12-19.3,12-39
				c0-18.5-4.6-30.6-12.2-37.3c-5.5-5.1-13.1-7.6-23.8-7.6c-6.3,0-12.2,0.6-16.4,1.8V454.9z"/>
			<path class="st3" d="M593.6,455.3l7.5-36.6c2-9.6,3.6-19.7,5.1-30.6h0.3c1.2,10.8,2.7,21.2,4.4,30.3l7,36.8h14.9l17-92.3h-14.3
				l-5.9,39.9c-1.4,10.6-2.8,20.5-4.1,33.2H625c-1.2-12.5-3-22.9-4.9-33.5l-7.2-39.6h-12l-7.5,40.1c-2.1,11.4-4.1,21.4-5.4,32.9
				h-0.4c-1.2-11.3-2.2-21.8-3.8-32.8l-6-40.3h-15.1l16.6,92.3h14.3V455.3z"/>
			<rect x="662.9" y="363" class="st3" width="14.6" height="92.3"/>
			<polygon class="st3" points="706.8,455.3 721.5,455.3 721.5,376.4 738.1,376.4 738.1,363 690.3,363 690.3,376.4 706.8,376.4 			
				"/>
			<path class="st3" d="M784,427.9c0,13.1-4.4,15.6-10.7,15.6c-2.1,0-3.9-0.2-5.5-0.6l-1.2,12.3c1.9,0.7,4.8,1.2,8,1.2
				c13.1,0,24-5.1,24-29V363H784V427.9z"/>
			<path class="st3" d="M836.6,377.7c7,0,9.5,13.2,9.5,33.1c0,20.8-2.7,33.1-9.4,33.1c-7.3,0-10.3-11.9-10.2-33.1
				C826.4,389.8,829.7,377.7,836.6,377.7z M837,365.1c-16.6,0-25.2,18.3-25.2,45.9c0,25.6,7.3,45.3,24.2,45.3
				c13.8,0,24.8-13.7,24.8-45.9C860.8,386,854.8,365.1,837,365.1z"/>
			<path class="st3" d="M889.7,412.4h4.2c8.4,0.1,15.8,5.4,15.8,16.2c0,10.5-6.5,15.9-15.4,15.9c-1.9,0-3.4-0.1-4.6-0.4V412.4z
				 M889.7,374.2c1.2-0.4,3-0.6,5.1-0.6c9.1,0,12.6,5.8,12.6,13.4c0,8.5-6,14.5-13.5,14.5h-4.3v-27.3H889.7z M875.1,454.9
				c3.5,0.6,8.6,1,15.3,1c13.3,0,22.3-2.9,27.7-8.9c4.2-4.5,6.7-10.6,6.7-18.2c0-11-6-19.7-16.7-22.7v-0.4
				c9.1-3.8,13.7-11.6,13.7-20.3c0-6.5-2.1-12.4-6.6-16.4c-5.7-5-13.5-6.5-22-6.5c-6.9,0-13.2,0.6-18.2,1.8L875.1,454.9L875.1,454.9
				z"/>
			<polygon class="st3" points="964.3,455.3 978.9,455.3 978.9,415.5 1000.7,415.5 1000.7,403.2 978.9,403.2 978.9,375.6 
				1002.1,375.6 1002.1,363 964.3,363 			"/>
			<path class="st3" d="M1027,419.7l4-21.1c1.1-5.8,2.5-14.6,3.5-21.1h0.4c1,6.5,2.2,15,3.3,21l3.9,21.2L1027,419.7L1027,419.7z
				 M1043.6,431.2l4.9,24.1h14.3l-19.1-92.3h-17.1l-20.5,92.3h14.2l5-24.1H1043.6z"/>
			<rect x="1076.4" y="363" class="st3" width="14.6" height="92.3"/>
			<path class="st3" d="M1124.6,374.6c1.2-0.4,3.1-0.5,4.9-0.5c9.5,0.2,13.2,6.2,13.2,15.4c0,9.4-5.5,16.2-14.3,16.2h-3.8
				L1124.6,374.6L1124.6,374.6z M1110.1,455.3h14.5V417h3.4c7.3,0,10.7,3.9,12.5,15.9c1.6,10.7,3.5,19.8,4.8,22.4h15.2
				c-1.5-3.1-3.7-13-5.6-24.3c-1.9-10.9-5.2-17.1-11.7-19.4v-0.3c9.3-4.3,14.5-12.6,14.5-23.4c0-7.6-1.8-13.8-7-18.7
				c-5.4-5.1-13.4-6.7-22.9-6.7c-6.1,0-12.5,0.6-17.6,1.8v91H1110.1z"/>
			<path class="st3" d="M1239.6,455.3v-12.9h-28.3v-0.3l5.6-7.1c10.6-13.3,21.3-28,21.3-44.7c0-13.1-6.4-25.1-23.7-25.1
				c-8.1,0-15.1,3.1-18.7,5.8l2.9,11.2c2.8-1.8,7.2-4.7,13.1-4.7c7.8,0,11.9,5.5,11.9,13.8c0,14.5-10.8,28.7-21.9,43.4l-8.2,10.8
				v9.7h46V455.3z"/>
			<path class="st3" d="M1276.6,377.7c7,0,9.5,13.2,9.5,33.1c0,20.8-2.7,33.1-9.4,33.1c-7.3,0-10.3-11.9-10.2-33.1
				C1266.4,389.8,1269.7,377.7,1276.6,377.7z M1277,365.1c-16.6,0-25.2,18.3-25.2,45.9c0,25.6,7.3,45.3,24.2,45.3
				c13.8,0,24.8-13.7,24.8-45.9C1300.8,386,1294.8,365.1,1277,365.1z"/>
			<path class="st3" d="M1356.8,455.3v-12.9h-28.3v-0.3l5.6-7.1c10.6-13.3,21.3-28,21.3-44.7c0-13.1-6.4-25.1-23.7-25.1
				c-8.1,0-15.1,3.1-18.7,5.8l2.9,11.2c2.8-1.8,7.2-4.7,13.1-4.7c7.8,0,11.9,5.5,11.9,13.8c0,14.5-10.8,28.7-21.9,43.4l-8.2,10.8
				v9.7h46V455.3z"/>
			<path class="st3" d="M1415.4,455.3v-12.9h-28.3v-0.3l5.6-7.1c10.6-13.3,21.3-28,21.3-44.7c0-13.1-6.4-25.1-23.7-25.1
				c-8.1,0-15.1,3.1-18.7,5.8l2.9,11.2c2.8-1.8,7.2-4.7,13.1-4.7c7.8,0,11.9,5.5,11.9,13.8c0,14.5-10.8,28.7-21.9,43.4l-8.2,10.8
				v9.7h46V455.3z"/>
		</g>
		<path class="st4" d="M502.1,364.3c4.2-1.1,10.1-1.8,16.4-1.8c10.7,0,18.3,2.6,23.8,7.6c7.6,6.7,12.2,18.8,12.2,37.3
			c0,19.8-5,32.2-12,39c-6.1,6.3-15.1,9.4-27,9.4c-5.1,0-10.2-0.4-13.4-1V364.3z M516.6,443.6c1.2,0.3,2.6,0.3,3.6,0.3
			c10,0,19.2-8.4,19.2-36.6c0-20.9-5.9-33-18.6-33c-1.4,0-2.9,0.1-4.2,0.5V443.6z M579.5,455.3L562.9,363H578l6,40.3
			c1.6,11,2.7,21.5,3.8,32.8h0.4c1.3-11.5,3.3-21.5,5.4-32.9l7.5-40.1h12l7.2,39.6c1.9,10.6,3.6,21,4.9,33.5h0.3
			c1.3-12.6,2.7-22.6,4.1-33.2l5.9-39.9h14.3l-17,92.3h-14.9l-7-36.8c-1.7-9.1-3.2-19.6-4.4-30.3h-0.3c-1.5,10.9-3.1,21-5.1,30.6
			l-7.5,36.6h-14.1V455.3z M677.5,363v92.3h-14.6V363H677.5z M706.8,376.4h-16.6V363H738v13.4h-16.6v78.9h-14.6L706.8,376.4
			L706.8,376.4z M784,363h14.6v64.4c0,23.9-10.8,29-24,29c-3.2,0-6.2-0.4-8-1.2l1.2-12.3c1.5,0.4,3.3,0.6,5.5,0.6
			c6.3,0,10.7-2.5,10.7-15.6V363z M860.8,410.4c0,32.2-11,45.9-24.8,45.9c-16.9,0-24.2-19.7-24.2-45.3c0-27.6,8.5-45.9,25.2-45.9
			C854.8,365.1,860.8,386,860.8,410.4z M826.5,410.7c-0.2,21.1,2.9,33.1,10.2,33.1c6.8,0,9.4-12.3,9.4-33.1
			c0-19.9-2.5-33.1-9.5-33.1C829.7,377.7,826.4,389.8,826.5,410.7z M875.1,364.3c4.9-1.2,11.3-1.8,18.2-1.8c8.4,0,16.3,1.4,22,6.5
			c4.5,4,6.6,9.9,6.6,16.4c0,8.7-4.7,16.5-13.7,20.3v0.4c10.7,3,16.7,11.7,16.7,22.7c0,7.6-2.5,13.7-6.7,18.2
			c-5.4,6-14.4,8.9-27.7,8.9c-6.8,0-11.8-0.4-15.3-1L875.1,364.3L875.1,364.3z M889.7,401.5h4.3c7.4,0,13.5-6,13.5-14.5
			c0-7.6-3.5-13.4-12.6-13.4c-2.2,0-3.9,0.2-5.1,0.6v27.3H889.7z M889.7,444.1c1.2,0.3,2.7,0.4,4.6,0.4c8.9,0,15.4-5.3,15.4-15.9
			c0-10.8-7.4-16.2-15.8-16.2h-4.2V444.1z M964.3,363h37.9v12.7h-23.3v27.6h21.8v12.2h-21.8v39.8h-14.6L964.3,363L964.3,363z
			 M1025.3,431.2l-5,24.1h-14.2l20.5-92.3h17.1l19.1,92.3h-14.3l-4.9-24.1H1025.3z M1042.1,419.7l-3.9-21.2c-1.1-6-2.3-14.6-3.3-21
			h-0.4c-1,6.5-2.4,15.3-3.5,21.1l-4,21.1H1042.1L1042.1,419.7z M1091,363v92.3h-14.6V363H1091z M1110.1,364.3
			c5.1-1.2,11.5-1.8,17.6-1.8c9.5,0,17.4,1.6,22.9,6.7c5.1,4.9,7,11,7,18.7c0,10.7-5.2,19.1-14.5,23.4v0.3
			c6.5,2.3,9.9,8.5,11.7,19.4c1.9,11.3,4.1,21.1,5.6,24.3h-15.2c-1.2-2.6-3.2-11.7-4.8-22.4c-1.8-12-5.2-15.9-12.5-15.9h-3.4v38.3
			H1110v-91H1110.1z M1124.6,405.6h3.8c8.8,0,14.3-6.8,14.3-16.2c0-9.1-3.7-15.2-13.2-15.4c-1.8,0-3.7,0.1-4.9,0.5L1124.6,405.6
			L1124.6,405.6z M1193.6,455.3v-9.7l8.2-10.8c11.1-14.7,21.9-28.9,21.9-43.4c0-8.4-4.1-13.8-11.9-13.8c-6,0-10.3,2.9-13.1,4.7
			l-2.9-11.2c3.6-2.6,10.6-5.8,18.7-5.8c17.4,0,23.7,12.1,23.7,25.1c0,16.7-10.7,31.4-21.3,44.7l-5.6,7.1v0.3h28.3v12.9h-46V455.3z
			 M1300.8,410.4c0,32.2-11,45.9-24.8,45.9c-16.9,0-24.2-19.7-24.2-45.3c0-27.6,8.5-45.9,25.2-45.9
			C1294.8,365.1,1300.8,386,1300.8,410.4z M1266.5,410.7c-0.2,21.1,2.9,33.1,10.2,33.1c6.8,0,9.4-12.3,9.4-33.1
			c0-19.9-2.5-33.1-9.5-33.1C1269.7,377.7,1266.4,389.8,1266.5,410.7z M1310.8,455.3v-9.7l8.2-10.8c11.1-14.7,21.9-28.9,21.9-43.4
			c0-8.4-4.1-13.8-11.9-13.8c-6,0-10.3,2.9-13.1,4.7l-2.9-11.2c3.6-2.6,10.6-5.8,18.7-5.8c17.4,0,23.7,12.1,23.7,25.1
			c0,16.7-10.7,31.4-21.3,44.7l-5.6,7.1v0.3h28.3v12.9h-46V455.3z M1369.4,455.3v-9.7l8.2-10.8c11.1-14.7,21.9-28.9,21.9-43.4
			c0-8.4-4.1-13.8-11.9-13.8c-6,0-10.3,2.9-13.1,4.7l-2.9-11.2c3.6-2.6,10.6-5.8,18.7-5.8c17.4,0,23.7,12.1,23.7,25.1
			c0,16.7-10.7,31.4-21.3,44.7l-5.6,7.1v0.3h28.3v12.9h-46V455.3z"/>
	</g>
	<g>
		<g>
			<g>
				<path class="st5" d="M1035,264.5h3.2l0.3,2.9h0.1c2.1-2,5.1-3.5,7.9-3.5c6.2,0,9.4,4.6,9.4,11.7c0,7.8-4.9,12.3-10.4,12.3
					c-2.1,0-4.7-1.1-6.8-3h-0.1l0.2,4.3v7.7h-3.9v-32.4H1035z M1052,275.5c0-5-1.9-8.4-6.4-8.4c-2,0-4.4,1-6.7,3.4v11.4
					c2.1,1.9,4.5,2.6,6.1,2.6C1049,284.6,1052,281.2,1052,275.5z"/>
				<path class="st5" d="M1065.7,264.5h3.2l0.4,5.4h0.1c2.4-3.7,6-6,10.2-6c1.7,0,3.1,0.2,4.5,0.9l-0.9,3.3
					c-1.6-0.5-2.4-0.8-4.2-0.8c-3.4,0-6.7,1.7-9.4,6.5v13.3h-3.9L1065.7,264.5L1065.7,264.5z"/>
				<path class="st5" d="M1090.2,275.8c0-7.4,5.5-11.9,11.7-11.9c6.6,0,10.4,4.3,10.4,10.7c0,0.9-0.1,1.7-0.2,2.3h-19.3v-3h17
					l-1,1.1c0-5.4-2.7-8.1-6.9-8.1c-4.2,0-7.9,3.2-7.9,8.9c0,5.9,3.9,8.9,8.9,8.9c2.7,0,4.9-0.8,7-2.2l1.4,2.5
					c-2.3,1.5-5.2,2.7-8.8,2.7C1095.7,287.9,1090.2,283.4,1090.2,275.8z"/>
				<path class="st5" d="M1118.6,284.3l1.8-2.6c2.6,1.9,5.7,3.1,9.9,3.1c3.9,0,5.7-1.6,5.7-3.5c0-1.7-0.9-3-7.1-4.2
					c-6-1.2-8.9-3.2-8.9-6.7c0-3.7,3.2-6.5,9.5-6.5c3.5,0,7,1.4,9.2,2.9l-1.9,2.5c-2.1-1.5-4.7-2.4-7.7-2.4c-3.9,0-5.3,1.6-5.3,3.3
					c0,2,2,2.8,6.7,3.8c7.6,1.6,9.4,3.5,9.4,7c0,3.7-3.6,6.8-10.1,6.8C1125.3,287.9,1121.3,286.2,1118.6,284.3z"/>
				<path class="st5" d="M1146.6,275.8c0-7.4,5.5-11.9,11.7-11.9c6.6,0,10.4,4.3,10.4,10.7c0,0.9-0.1,1.7-0.2,2.3h-19.3v-3h17
					l-1,1.1c0-5.4-2.7-8.1-6.9-8.1c-4.2,0-7.9,3.2-7.9,8.9c0,5.9,3.9,8.9,8.9,8.9c2.7,0,4.9-0.8,7-2.2l1.4,2.5
					c-2.3,1.5-5.2,2.7-8.8,2.7C1152.1,287.9,1146.6,283.4,1146.6,275.8z"/>
				<path class="st5" d="M1176,264.5h3.2l0.3,3.9h0.2c2.4-2.5,5-4.4,8.6-4.4c5.4,0,7.9,3.2,7.9,9.2v14.2h-3.9v-13.8
					c0-4.3-1.5-6.3-5.2-6.3c-2.7,0-4.6,1.4-7.2,4.1v15.9h-3.9V264.5z"/>
				<path class="st5" d="M1209.5,278.4v-10.8h-6.5v-2.9l6.6-0.2l0.5-7.3h3.2v7.3h11.2v3.1h-11.2v10.9c0,4.1,1.4,6.2,5.8,6.2
					c2.1,0,3.8-0.4,5.5-1l0.8,2.9c-2.1,0.8-4.3,1.4-7.1,1.4C1211.6,287.9,1209.5,284.1,1209.5,278.4z"/>
				<path class="st5" d="M1231.3,284.3l1.8-2.6c2.6,1.9,5.7,3.1,9.9,3.1c3.9,0,5.7-1.6,5.7-3.5c0-1.7-0.9-3-7.1-4.2
					c-6-1.2-8.9-3.2-8.9-6.7c0-3.7,3.2-6.5,9.5-6.5c3.5,0,7,1.4,9.2,2.9l-1.9,2.5c-2.1-1.5-4.7-2.4-7.7-2.4c-3.9,0-5.3,1.6-5.3,3.3
					c0,2,2,2.8,6.7,3.8c7.6,1.6,9.4,3.5,9.4,7c0,3.7-3.6,6.8-10.1,6.8C1238.1,287.9,1234.1,286.2,1231.3,284.3z"/>
			</g>
		</g>
		<g>
			<text transform="matrix(0.9626 0 0 1 746.6602 299.907)" class="st6 st7 st8">d</text>
			<text transform="matrix(0.9626 0 0 1 784.0293 299.907)" class="st6 st7 st8 st9">e</text>
			<text transform="matrix(0.9626 0 0 1 816.9292 299.907)" class="st6 st7 st8">e</text>
			<text transform="matrix(0.9626 0 0 1 849.8955 299.907)" class="st6 st7 st8 st9">rho</text>
			<text transform="matrix(0.9626 0 0 1 943.3955 299.907)" class="st6 st7 st8">l</text>
			<text transform="matrix(0.9626 0 0 1 960.4844 299.907)" class="st6 st7 st8">d</text>
			<path class="st6" d="M1002.7,256.7c-3.5,0-6.3-2.8-6.3-6.3s2.8-6.3,6.3-6.3s6.3,2.8,6.3,6.3S1006.2,256.7,1002.7,256.7
				 M1002.7,245.6c-2.7,0-4.9,2.2-4.9,4.9c0,2.7,2.2,4.9,4.9,4.9s4.9-2.2,4.9-4.9C1007.6,247.8,1005.4,245.6,1002.7,245.6"/>
			<path class="st6" d="M1005.9,253.7C1005.9,253.8,1005.9,253.8,1005.9,253.7C1005.9,253.8,1005.8,253.8,1005.9,253.7
				c-0.1,0.1-0.2,0.1-0.3,0.1c-0.1,0-0.2,0-0.3,0s-0.2,0-0.2,0c-0.1,0-0.1,0-0.2,0c0,0-0.1,0-0.1-0.1c0,0,0-0.1-0.1-0.1l-0.7-1.8
				c-0.1-0.2-0.2-0.4-0.3-0.6c-0.1-0.2-0.2-0.3-0.3-0.4c-0.1-0.1-0.3-0.2-0.4-0.3c-0.2-0.1-0.4-0.1-0.6-0.1h-0.7v3.2v0.1
				c0,0,0,0-0.1,0.1c0,0-0.1,0-0.2,0c-0.1,0-0.1,0-0.2,0c-0.1,0-0.2,0-0.2,0c-0.1,0-0.1,0-0.2,0c0,0-0.1,0-0.1-0.1v-0.1v-7
				c0-0.2,0-0.3,0.1-0.3c0.1-0.1,0.2-0.1,0.3-0.1h1.6c0.2,0,0.4,0,0.5,0s0.2,0,0.3,0c0.3,0,0.5,0.1,0.8,0.2c0.2,0.1,0.4,0.2,0.6,0.4
				c0.2,0.2,0.3,0.4,0.3,0.6c0.1,0.2,0.1,0.5,0.1,0.7c0,0.3,0,0.5-0.1,0.7s-0.2,0.4-0.3,0.5c-0.1,0.2-0.3,0.3-0.5,0.4
				c-0.2,0.1-0.4,0.2-0.6,0.3c0.1,0.1,0.2,0.1,0.3,0.2c0.1,0.1,0.2,0.2,0.3,0.3c0.1,0.1,0.2,0.3,0.2,0.4c0.1,0.2,0.2,0.3,0.2,0.5
				l0.7,1.7c0.1,0.1,0.1,0.2,0.1,0.3C1005.9,253.7,1005.9,253.7,1005.9,253.7 M1004.4,248.4c0-0.3-0.1-0.5-0.2-0.8
				c-0.1-0.2-0.4-0.4-0.7-0.4c-0.1,0-0.2,0-0.3-0.1c-0.1,0-0.3,0-0.5,0h-0.8v2.6h1c0.3,0,0.5,0,0.7-0.1s0.4-0.2,0.5-0.3
				c0.1-0.1,0.2-0.3,0.3-0.4C1004.3,248.8,1004.4,248.6,1004.4,248.4"/>
			<path class="st10" d="M730,278.5c0,21.9-17.8,39.7-39.7,39.7s-39.7-17.8-39.7-39.7c0-21.9,17.8-39.7,39.7-39.7
				S730,256.6,730,278.5"/>
			<path class="st4" d="M719.5,273.1c-0.2-1.2-1-1.8-2.2-1.6c-0.7,0.1-1.5,0.4-2.2,0.6c-0.6,0.2-1.1,0.3-1.7,0.4
				c-0.8,0.1-1.3-0.2-1.6-0.9s-0.6-1.5-0.8-2.3c-0.7-2.6-1-5.2-1-7.9c0-0.4,0.1-0.7,0.1-1c0.1-0.5,0.3-0.8,0.7-0.9
				c0.7-0.2,1.4-0.4,2.2-0.6c0.7-0.2,1.3-0.2,2-0.4c0.6-0.1,0.8-0.4,0.8-1c0-0.2,0-0.3,0-0.5c-0.1-0.8-0.3-1-1.1-1.2
				c-0.8-0.2-1.7-0.2-2.5-0.4c-1.1-0.3-2.2-0.7-3.3-1c-0.8-0.3-1.6-0.6-2.5-0.5c0-0.3-0.1-0.7-0.1-1c0-0.6,0-1.3,0-1.9
				c0-1.7-0.2-3.4-0.7-5c-0.1-0.4-0.3-0.8-0.5-1.2c-0.1-0.1-0.2-0.2-0.4-0.3c-0.1,0.1-0.2,0.3-0.2,0.4c0.1,0.6,0.2,1.1,0.3,1.6
				c0.2,1.5,0.5,3,0.3,4.5c0,0.2-0.1,0.5-0.2,0.7c-0.1,0.3-0.3,0.3-0.5,0.2s-0.3-0.2-0.5-0.3c-0.6-0.5-1.3-0.9-1.9-1.4
				c-0.1-0.1-0.2-0.2-0.3-0.4c-0.4-1.3-0.8-2.5-1.4-3.7c-0.2-0.3-0.4-0.7-0.7-1c-0.1-0.1-0.3-0.1-0.4-0.2c0,0.1-0.1,0.3-0.1,0.4
				c0,0.2,0.1,0.3,0.1,0.5c0.4,1,0.7,2,1.1,3c0,0.1,0,0.2,0.1,0.3c-0.8-0.4-1.5-0.8-2.2-1.3c-0.7-0.4-1.3-0.8-2-1.2
				c-1-0.7-1.7-1.6-2.5-2.5c-0.4-0.5-0.8-0.9-1.2-1.3h-0.2c-0.2,0.1-0.2,0.3-0.1,0.5c0.1,0.2,0.2,0.5,0.4,0.7
				c0.6,0.8,1.2,1.6,1.9,2.4c0.1,0.1,0.1,0.2,0.3,0.3c-1.2-0.2-2.4-0.1-3.5,0.4c-0.2,0.1-0.4,0.2-0.5,0.3c-0.2,0.2-0.1,0.4,0.2,0.5
				c0.2,0,0.3,0,0.5,0c0.7-0.1,1.3-0.3,2-0.3c1.2-0.1,2.4,0.3,3.5,0.8c1.9,0.9,3.7,2.1,5.3,3.4c0.4,0.3,0.7,0.6,1.1,1
				c-0.3,0.4-0.3,0.9-0.1,1.3c0.2,0.5,0.5,1,0.8,1.5c0.1,0.1,0.1,0.3,0.1,0.4c0,0.4-0.2,0.8-0.2,1.2c-0.1,1.3-0.2,2.6-0.2,3.8
				c-0.1,1.8-0.5,3.5-1.1,5.2c-0.1,0.4-0.4,0.6-0.7,0.7c-2.3,0.7-4.3,1.8-6.1,3.5c-0.1,0.1-0.2,0.1-0.3,0.1
				c-2.2,0.5-4.3,1.2-6.2,2.3c-1.3,0.8-2.7,1.2-4.2,1.1c-1.9,0-3.7,0.5-5.3,1.6c-0.4,0.3-0.9,0.6-1.4,0.8c-0.6,0.3-1.2,0.5-1.8,0.8
				c-0.4,0.2-0.7,0.6-0.9,1.1c-0.2,0.7-0.3,1.4-0.2,2.1c0,0.4,0.1,0.8,0.4,1.1c0.1-0.6,0.3-1.3,0.5-1.9s0.8-1.3,1.1-1.4
				c-0.2,0.6-0.6,1.3-0.7,2c-0.2,1-0.3,2-0.4,3c-0.1,1.1-0.4,2.2-1,3.1c-0.7,1-1.6,1.7-2.5,2.4c-0.8,0.6-1.6,1.2-2.4,1.9
				c-1.3,1.2-2.1,2.7-2.8,4.3c-1.1,2.5-2.6,4.6-4.9,6.1c-0.1,0.1-0.2,0.2-0.3,0.3v0.6c0.2,0.5,0.4,1.1,0.6,1.6
				c0.2,0.5,0.6,0.9,0.8,1.3h0.5c0.1-0.4,0.3-0.8,0.4-1.2c0.3-1,0.6-2,1.2-2.9c2.5-3.9,5.6-7,9.6-9.3c2.1-1.2,4.2-2.5,6.3-3.8
				c1.6-1,3.1-2.1,4.3-3.5c1.5-1.6,2.2-3.5,2-5.7c0-0.1,0-0.2,0-0.3s0-0.2,0-0.3c0.3,1.9-0.1,4.2-1.7,6c0.2-0.1,1.5-0.2,1.7-0.3
				c1-0.3,2.1-0.7,3.1-1c2.1-0.5,4.2-0.6,6.3-0.7c1.6-0.1,3.1-0.2,4.6-0.5c2.7-0.6,5-1.8,6.9-3.9c0.1-0.1,0.7-1.1,0.8-1.2
				c-1.5,0-2,0.3-4.8,0.1c0.1,0,0.3,0,0.4,0c1.6,0.1,3.2,0.1,4.7-0.1c2.2-0.3,4.3-0.9,6.4-1.7c0.2-0.1,0.4-0.2,0.6-0.2
				c0.4-0.1,0.6,0.1,0.6,0.4c0,0.4,0.1,0.8,0,1.1c-0.3,1.8-0.6,3.5-1,5.3c-0.2,1.3-1,2.4-2.1,3.1c-0.3,0.2-0.5,0.4-0.8,0.6
				c-0.1,0.1-0.2,0.2-0.2,0.3c0,0.6,0.2,1.3,0.6,1.8c0.2,0.4,0.5,0.6,0.9,0.8c0.2-0.2,0.3-0.3,0.5-0.5c1.3-1.5,2.4-3,2.9-4.9
				c0.5-1.8,0.8-3.7,1.1-5.6c0.1-0.6,0.1-1.2,0.2-1.8V273C719.6,273.3,719.5,273.2,719.5,273.1 M705.7,256.3c0.1-0.5,0.1-1,0.1-1.4
				c0-0.1-0.1-0.3-0.1-0.4c-0.2-0.3-0.5-0.6-0.7-0.9c-0.3-0.3-0.7-0.7-1-1c0.3,0.1,0.6,0.2,0.8,0.4c0.5,0.4,0.9,0.9,1.3,1.4
				c0,0,0.1,0.1,0.1,0.2C706.1,255.1,706,255.7,705.7,256.3"/>
		</g>
	</g>
	<g>
		<g>
			<path class="st11" d="M1167.6,646.1c-2,0-3.6-1.5-3.6-3.5v-12.8c0-4.1-1.9-6.4-5.2-6.4c-3.4,0-5.5,2.5-5.5,6.5v12.7
				c0,2-1.5,3.5-3.5,3.5s-3.6-1.5-3.6-3.5v-12.9c0-4-1.9-6.3-5.2-6.3c-3.4,0-5.5,2.5-5.5,6.5v12.7c0,2-1.6,3.5-3.6,3.5
				s-3.5-1.5-3.5-3.5v-21.9c0-2,1.5-3.6,3.5-3.6s3.6,1.6,3.6,3.6v0.2c1.7-2,4.1-4,8.1-4c3.7,0,6.7,1.6,8.3,4.6
				c2.5-3.1,5.5-4.6,9.3-4.6c6.3,0,10.1,4.1,10.1,11v14.8C1171.1,644.6,1169.6,646.1,1167.6,646.1"/>
			<path class="st11" d="M1208,646.1c-2,0-3.5-1.5-3.5-3.5v-21.9c0-2,1.5-3.6,3.5-3.6s3.6,1.6,3.6,3.6v1.2c1.7-2.9,4.2-4.8,6.6-4.8
				c2.1,0,3.5,1.4,3.5,3.5c0,1.8-1.1,3.1-2.8,3.4c-4.7,0.8-7.3,4.5-7.3,10.4v8.2C1211.6,644.5,1210,646.1,1208,646.1"/>
			<path class="st11" d="M1236.1,646.5c-8.4,0-15.1-6.5-15.1-14.7v-0.1c0-8.3,6.7-14.9,15.2-14.9s15.1,6.5,15.1,14.7v0.1
				C1251.3,640,1244.7,646.5,1236.1,646.5 M1236.1,623.1c-4.6,0-8,3.5-8,8.4v0.1c0,4.8,3.5,8.5,8.1,8.5s8-3.5,8-8.4v-0.1
				C1244.2,626.8,1240.7,623.1,1236.1,623.1"/>
			<path class="st11" d="M1253.4,654.4c-2.4-0.1-3.8-1.2-3.8-3c0-1.7,1.2-3,2.9-3c0.1,0,0.2,0,0.3,0h0.1c1.3,0,2-0.9,2-2.6v-25.2
				c0-2,1.6-3.6,3.5-3.6c2,0,3.6,1.6,3.6,3.6v25.2c0,5.5-2.9,8.6-8,8.6H1253.4z M1258.3,614.2c-2.3,0-4-1.5-4-3.5v-0.3
				c0-2,1.6-3.5,4-3.5s4,1.4,4,3.5v0.3C1262.3,612.7,1260.6,614.2,1258.3,614.2"/>
			<path class="st11" d="M1254.7,610.3c0-1.9,1.6-3.1,3.6-3.1s3.6,1.2,3.6,3.1v0.3c0,1.9-1.6,3.1-3.6,3.1s-3.6-1.3-3.6-3.1V610.3z"
				/>
			<path class="st11" d="M1280.3,646.5c-8.4,0-15.1-6.5-15.1-14.7v-0.1c0-8.3,6.7-14.9,15.2-14.9s15.1,6.5,15.1,14.7v0.1
				C1295.5,640,1288.9,646.5,1280.3,646.5 M1280.3,623.1c-4.6,0-8,3.5-8,8.4v0.1c0,4.8,3.5,8.5,8.1,8.5s8-3.5,8-8.4v-0.1
				C1288.4,626.8,1284.9,623.1,1280.3,623.1"/>
			<path class="st11" d="M1314.8,646.4c-3.7,0-6.6-1.4-9.1-4.2v0.3c0,1.9-1.6,3.5-3.6,3.5c-1.9,0-3.5-1.6-3.5-3.5V610
				c0-2,1.5-3.5,3.5-3.5s3.6,1.6,3.6,3.5v11.2c2.4-3,5.4-4.4,9.1-4.4c6.6,0,13.2,5.1,13.2,14.7v0.1
				C1328,641.4,1321.3,646.4,1314.8,646.4 M1313.3,623.1c-4.4,0-7.7,3.6-7.7,8.5v0.1c0,4.8,3.3,8.5,7.7,8.5c4.4,0,7.5-3.5,7.5-8.5
				v-0.1C1320.8,626.7,1317.5,623.1,1313.3,623.1"/>
			<path class="st11" d="M1183.7,631.8c0,1.4,1,2.5,2.3,2.5h8.2h1h2.8c1.9,0,3.4-1.5,3.4-3.4c0-6.8-4.7-14-13.5-14
				c-7.9,0-13.9,6.4-13.9,14.8v0.1c0,8.5,6.1,14.7,14.6,14.7c4,0,7.4-1.2,10.2-3.8c0.6-0.6,0.9-1.4,0.9-2.2c0-1.7-1.3-3-2.9-3
				c-0.8,0-1.3,0.3-1.9,0.7c-1.9,1.6-4,2.3-6.3,2.3c-3.9,0-6.8-2.4-7.5-6.3l0,0l-0.1-0.5c-0.2-0.7-0.2-1.5-0.2-2.2
				c0-0.9,0.1-1.8,0.3-2.7c0.8-3.8,3.3-6.2,6.6-6.2c4.2,0,6.1,3.3,6.6,6.5h-0.1l0,0h-8.2C1184.8,629.3,1183.7,630.4,1183.7,631.8"/>
			<path class="st11" d="M1128.3,669l4.9-10.7c0.2-0.4,0.4-0.6,0.9-0.6h0.1c0.4,0,0.7,0.2,0.8,0.6l4.9,10.7c0.1,0.1,0.1,0.2,0.1,0.3
				c0,0.4-0.3,0.7-0.7,0.7c-0.3,0-0.6-0.2-0.7-0.5l-1.3-2.8h-6.6l-1.3,2.8c-0.1,0.3-0.3,0.5-0.7,0.5c-0.3,0-0.6-0.3-0.6-0.6
				C1128.2,669.2,1128.3,669.1,1128.3,669 M1136.9,665.4l-2.8-6.2l-2.8,6.2H1136.9z"/>
			<path class="st11" d="M1142.8,658.4c0-0.4,0.3-0.7,0.7-0.7c0.4,0,0.7,0.3,0.7,0.7v10.9c0,0.4-0.3,0.7-0.7,0.7
				c-0.4,0-0.7-0.3-0.7-0.7V658.4z"/>
			<path class="st11" d="M1147.7,658.4c0-0.4,0.3-0.7,0.7-0.7h0.2c0.3,0,0.5,0.2,0.6,0.4l4.3,6.5l4.3-6.5c0.1-0.2,0.4-0.4,0.6-0.4
				h0.2c0.4,0,0.7,0.3,0.7,0.7v10.9c0,0.4-0.3,0.7-0.7,0.7c-0.4,0-0.7-0.3-0.7-0.7v-9l-3.9,5.7c-0.2,0.2-0.3,0.3-0.6,0.3
				c-0.2,0-0.4-0.1-0.6-0.3l-3.9-5.7v9c0,0.4-0.3,0.7-0.7,0.7c-0.4,0-0.7-0.3-0.7-0.7v-10.9H1147.7z"/>
			<path class="st11" d="M1167.9,658.4c0-0.4,0.3-0.7,0.7-0.7c0.4,0,0.7,0.3,0.7,0.7v4.8h7v-4.8c0-0.4,0.3-0.7,0.7-0.7
				c0.4,0,0.7,0.3,0.7,0.7v10.9c0,0.4-0.3,0.7-0.7,0.7c-0.4,0-0.7-0.3-0.7-0.7v-4.8h-7v4.8c0,0.4-0.3,0.7-0.7,0.7
				c-0.4,0-0.7-0.3-0.7-0.7V658.4z"/>
			<path class="st11" d="M1181.1,658.4c0-0.4,0.3-0.7,0.7-0.7c0.4,0,0.7,0.3,0.7,0.7v10.9c0,0.4-0.3,0.7-0.7,0.7
				c-0.4,0-0.7-0.3-0.7-0.7V658.4z"/>
			<path class="st11" d="M1185.5,663.8L1185.5,663.8c0-3.4,2.4-6.3,6.1-6.3c1.8,0,3,0.5,4.1,1.3c0.2,0.1,0.3,0.3,0.3,0.6
				c0,0.4-0.3,0.7-0.7,0.7c-0.2,0-0.3-0.1-0.4-0.2c-0.9-0.7-1.8-1.1-3.4-1.1c-2.7,0-4.6,2.3-4.6,5l0,0c0,2.9,1.8,5,4.8,5
				c1.4,0,2.7-0.5,3.5-1.2v-3h-3.3c-0.3,0-0.6-0.3-0.6-0.6s0.3-0.6,0.6-0.6h3.9c0.4,0,0.7,0.3,0.7,0.7v3.7c0,0.3-0.2,0.6-0.5,0.8
				c-1.1,0.8-2.6,1.5-4.4,1.5C1187.9,670.1,1185.5,667.3,1185.5,663.8"/>
			<path class="st11" d="M1199.6,658.4c0-0.4,0.3-0.7,0.7-0.7c0.4,0,0.7,0.3,0.7,0.7v4.8h7v-4.8c0-0.4,0.3-0.7,0.7-0.7
				c0.4,0,0.7,0.3,0.7,0.7v10.9c0,0.4-0.3,0.7-0.7,0.7c-0.4,0-0.7-0.3-0.7-0.7v-4.8h-7v4.8c0,0.4-0.3,0.7-0.7,0.7
				c-0.4,0-0.7-0.3-0.7-0.7V658.4z"/>
			<path class="st11" d="M1212.8,669.2v-10.7c0-0.4,0.3-0.7,0.7-0.7h7.5c0.3,0,0.6,0.3,0.6,0.6s-0.3,0.6-0.6,0.6h-6.8v4.1h6.1
				c0.3,0,0.6,0.3,0.6,0.6c0,0.3-0.3,0.6-0.6,0.6h-6.1v4.2h6.9c0.3,0,0.6,0.3,0.6,0.6c0,0.3-0.3,0.6-0.6,0.6h-7.6
				C1213.1,669.9,1212.8,669.6,1212.8,669.2"/>
			<path class="st11" d="M1224.3,658.5c0-0.4,0.3-0.7,0.7-0.7h4.5c1.5,0,2.7,0.5,3.4,1.2c0.6,0.6,0.9,1.4,0.9,2.4l0,0
				c0,2-1.3,3.1-3.2,3.5l3,3.9c0.1,0.2,0.2,0.3,0.2,0.5c0,0.4-0.3,0.7-0.7,0.7c-0.3,0-0.5-0.2-0.6-0.4l-3.4-4.4h-3.5v4.1
				c0,0.4-0.3,0.7-0.7,0.7c-0.4,0-0.7-0.3-0.7-0.7L1224.3,658.5L1224.3,658.5z M1229.4,663.9c1.8,0,3.1-0.9,3.1-2.5l0,0
				c0-1.5-1.1-2.4-3.1-2.4h-3.7v4.9H1229.4z"/>
			<g>
				<g>
					<defs>
						<path id="SVGID_5_" d="M1052.1,610.7c-0.6,0.7-6.4,7.5-7.1,8.3l-32.9,40c-1.6,2-3.9,3.2-6.5,3.4c-2.5,0.2-5-0.5-7-2.2
							c-2-1.6-3.2-3.9-3.4-6.5c-0.2-2.5,0.5-5,2.2-7l24.2-29.2c3.4-4.1,9.4-4.6,13.5-1.3c2,1.7,5,1.4,6.7-0.6s1.4-5-0.6-6.7
							c-8.1-6.7-20.1-5.6-26.8,2.5L990,640.7c-3.2,3.9-4.8,8.9-4.3,13.9c0.5,5.1,2.9,9.6,6.8,12.9c3.5,2.9,7.7,4.4,12.1,4.4
							c0.6,0,1.2,0,1.8-0.1c5.1-0.5,9.6-2.9,12.9-6.8l32.9-39.9c2.6-3,6.6-7.7,7-8.2c2.3-2.6,5-3.1,7-3.1c2.8,0,5.5,1.2,7,3.1
							l24.2,29.2c3.4,4.1,2.8,10.1-1.3,13.5c-2,1.6-4.5,2.4-7,2.2s-4.8-1.5-6.5-3.4l-14.6-17.6l-6.4-8.2c-1.6-2.1-4.6-2.4-6.7-0.8
							c-2.1,1.6-2.4,4.6-0.8,6.7l6.4,8.2l14.8,17.8c3.2,3.9,7.8,6.3,12.9,6.8s10-1.1,13.9-4.3c8.1-6.7,9.2-18.7,2.5-26.8l-24.2-29.2
							c-3.3-4-8.6-6.4-14.2-6.5c-0.1,0-0.3,0-0.4,0C1060.5,604.4,1055.6,606.7,1052.1,610.7"/>
					</defs>
					<clipPath id="SVGID_6_">
						<use xlink:href="#SVGID_5_"  style="overflow:visible;"/>
					</clipPath>
					
						<linearGradient id="SVGID_7_" gradientUnits="userSpaceOnUse" x1="543.5222" y1="211.3547" x2="544.7715" y2="211.3547" gradientTransform="matrix(0 54.0587 -54.0587 0 12473.8594 -28777.6992)">
						<stop  offset="0" style="stop-color:#00AFDB"/>
						<stop  offset="0.359" style="stop-color:#007CA8"/>
						<stop  offset="0.4049" style="stop-color:#0075A1"/>
						<stop  offset="0.638" style="stop-color:#004B7D"/>
						<stop  offset="1" style="stop-color:#262261"/>
					</linearGradient>
					<rect x="985.2" y="602.3" class="st12" width="126.2" height="69.7"/>
				</g>
			</g>
		</g>
		<g>
			<title>Asset 2</title>
			<path class="st13" d="M789.8,621.7c1.2-1,2.4-2.1,3.6-3.1c0.5-0.4,0.5-0.9,0-1.3c-1.2-1.1-2.4-2.2-3.7-3.2
				c-0.3-0.3-0.5-0.5-0.4-1c0.3-1,0.5-2,0.7-3c0.1-0.7-0.2-0.9-0.8-0.6c-0.6,0.2-1.4,0.5-2.1,0.7c-0.9,0.2-1.9,0.3-2.8,0.4
				c-0.6,0-0.9-0.3-1-0.9c-0.1-0.8-0.3-1.6-0.7-2.3c-0.9-1.8-1.9-3.6-2.9-5.3c-0.4-0.7-0.4-0.9,0.3-1.3c0.5-0.3,0.9-0.6,1.4-0.9
				s0.6-0.6,0.2-1.1c-1.3-1.9-3.1-3.4-5.1-4.4c-1.6-0.8-3.3-1.3-5.1-1.5c-0.8-0.1-1-0.3-0.9-1.2c0-0.5,0.1-1,0.1-1.4
				c0.1-0.9-0.1-1.8-0.6-2.6c-0.4-0.6-0.5-0.6-1,0c-0.3,0.4-0.6,0.7-1,1.1c-1.2,1.1-3,1.4-4.5,1c-1.1-0.3-2.2-0.4-3.3-0.2
				c-0.5,0.2-1,0-1.2-0.5c0,0,0,0,0-0.1c-0.4-0.8-0.8-1.5-1.3-2.2c-1.3-2.1-3.5-2.6-5.7-3c-0.5,0-1.1,0.3-1.6,0.4
				c-1.2,0.2-2.4,0.7-3.3,1.5c-1.9,1.6-3.5,3.4-3,6.2c0.2,1.8,1.8,3.3,3.6,3.3c0.8,0,1.4,0.6,1.5,1.3c0,0.1,0,0.2,0,0.3
				c-0.2,0.7-0.5,1.3-0.9,1.8c-0.7,0.8-1.4,0.6-1.7-0.3c-0.4-1.1-1.2-2-2.2-2.6c-0.3-0.2-0.6-0.2-1-0.1c-1.5,0.5-2.6,1.9-2.7,3.5
				c0,0.3-0.1,0.6-0.3,0.8s-0.5,0.3-0.8,0.4c-0.1-0.2-0.2-0.5-0.3-0.8c0-0.1,0-0.3,0-0.4c0-0.8-0.2-0.9-0.9-0.5
				c-0.7,0.4-1.2,0.7-1.8,1c-0.2,0.1-0.5,0.2-0.8,0.2c-1,0.1-2,0.1-2.9,0.3c-2.8,0.4-5.2,2.2-6.4,4.7c-0.5,1.1-1.4,1.2-2.2,0.2
				c-1.5-2.1-3.6-3.6-6-4.3c-0.9-0.3-1.8-0.5-2.8-0.5c-1.2,0.2-2.4,0.5-3.5,1c-1.9,0.8-3.6,2.2-4.8,4c-0.2,0.4-0.7,0.6-1.1,0.4
				c-0.1,0-0.1-0.1-0.2-0.1c-0.3-0.2-0.6-0.4-0.8-0.8c-1.7-3.4-4.7-4.5-8.1-4.9c-1.2-0.1-2.4-0.5-3.4-1.1c-1.2-0.7-1.2-0.7-1.2,0.7
				c-0.1,0.3-0.2,0.5-0.3,0.8c-0.3-0.2-0.5-0.3-0.7-0.5c-0.1-0.2-0.2-0.4-0.2-0.7c-0.1-1.6-1.1-3-2.6-3.5c-0.3-0.1-0.7-0.1-1,0
				c-0.5,0.3-1,0.7-1.4,1.1c-0.4,0.5-0.7,1-0.9,1.6c-0.4,0.9-1,1-1.6,0.4c-0.4-0.3-0.7-0.8-0.9-1.2c-0.4-0.8-0.1-1.7,0.6-2.1
				c0.3-0.1,0.5-0.2,0.8-0.2c0.6,0,1.3-0.1,1.8-0.5c1.8-1.5,2.4-4.1,1.2-6.2c-1.7-2.7-4.2-4-7.2-4.7c-0.3-0.1-0.5-0.1-0.8,0
				c-0.5,0.1-1,0.3-1.5,0.5c-0.7,0.2-1.3,0.5-1.9,0.8c-1.4,0.9-2.4,2.3-3,3.8c-0.1,0.5-0.7,0.9-1.2,0.7h-0.1
				c-0.9-0.2-1.9-0.1-2.8,0.1c-2.1,0.6-4.4-0.1-5.7-1.8c-0.5-0.7-0.8-0.7-1.2,0.1c-0.5,1-0.6,2.1-0.4,3.2c0.3,2.1,0,1.9-1.7,2.1
				c-3.7,0.6-7,2.7-9.2,5.8c-0.3,0.4-0.2,0.7,0.2,1s1.1,0.7,1.6,1.1c0.6,0.3,0.6,0.6,0.2,1.1c-0.4,0.5-0.6,0.9-0.9,1.4
				c-1.3,1.8-2.2,3.9-2.7,6.2c-0.2,1-0.6,1.1-1.3,1.2c-0.4,0-0.7,0-1.1-0.1c-1.2-0.3-2.4-0.7-3.5-1c-0.6-0.2-0.9,0-0.8,0.5
				c0.1,1,0.4,2,0.6,3c0.2,0.6,0.1,0.9-0.3,1.2c-1.4,0.9-2.7,2-3.8,3.4c-0.3,0.2-0.3,0.6-0.1,0.9c0,0.1,0.1,0.1,0.1,0.1
				c1.2,1.1,2.4,2.2,3.7,3.3c0.4,0.2,0.6,0.7,0.4,1.1c-0.3,0.9-0.5,1.9-0.7,2.9c-0.1,0.7,0.1,0.9,0.8,0.7c0.7-0.2,1.3-0.5,1.9-0.6
				c1-0.2,2-0.4,3-0.5c0.6-0.1,0.9,0.3,1,0.9c0.1,0.8,0.3,1.5,0.6,2.3c1,1.9,2,3.7,3,5.5c0.3,0.3,0.2,0.7,0,1
				c-0.1,0.1-0.1,0.1-0.2,0.1l-1.7,1.1c-0.3,0.1-0.4,0.4-0.3,0.7c0,0.1,0.1,0.1,0.1,0.2c1.3,1.9,3.1,3.5,5.1,4.5
				c1.6,0.8,3.4,1.3,5.1,1.5c0.6,0.1,0.9,0.4,0.8,1c0,0.2,0,0.4,0,0.6c-0.2,1.2-0.1,2.4,0.4,3.5c0.4,0.8,0.7,0.8,1.2,0.1
				c1.2-1.7,3.4-2.4,5.4-2c0.8,0.3,1.6,0.4,2.4,0.3c1.5-0.4,2,0.3,2.6,1.5c0.6,1.4,1.7,2.6,3.1,3.3c3,1.4,6.5,0.8,8.9-1.5
				c1.5-1.4,2.7-3,2.4-5.2c-0.1-2.1-1.7-3.7-3.7-3.8c-0.8,0-1.4-0.7-1.4-1.4s0.3-1.4,0.8-1.9c0.9-0.9,1.4-0.8,1.9,0.3
				c0.4,1,1.1,1.8,2,2.4c0.5,0.3,1.1,0.3,1.5,0c1.4-0.6,2.3-2,2.4-3.5c0-0.3,0.5-1,0.8-1c0.7-0.1,0.4,0.6,0.4,1
				c0,0.9,0.2,1.1,1.1,0.6c0.6-0.3,1.1-0.6,1.7-0.9c0.3-0.1,0.6-0.2,0.9-0.2c1.1-0.1,2.3-0.3,3.4-0.5c2.2-0.4,4.1-1.7,5.4-3.6
				c0.2-0.4,0.4-0.7,0.7-1.1c0.6-0.9,1.3-1,2-0.2c1.5,2,3.6,3.5,6,4.3c0.9,0.3,1.9,0.5,2.9,0.5c1.5-0.3,3-0.8,4.4-1.4
				c1.6-0.8,3-2.1,4-3.5c0.2-0.4,0.8-0.5,1.2-0.3c0,0,0.1,0,0.1,0.1c0.3,0.2,0.6,0.5,0.7,0.8c1.7,3.3,4.7,4.6,8.1,4.9
				c1.2,0.1,2.4,0.5,3.5,1.1c0.1,0.1,0.3,0.2,0.5,0.3c0.5,0.3,0.7,0.1,0.7-0.4v-0.5c0-0.3-0.2-0.9,0.4-0.9c0.3,0,0.6,0.3,0.8,0.6
				c0.1,0.2,0.2,0.3,0.2,0.5c0.1,1.6,1.1,3,2.6,3.5c0.4,0.2,0.8,0.2,1.1,0c1-0.5,1.7-1.4,2.1-2.4c0.5-1.2,1-1.3,1.9-0.4
				c0.2,0.2,0.4,0.4,0.5,0.7c0.6,0.7,0.4,1.7-0.3,2.3c-0.3,0.2-0.7,0.4-1.1,0.3c-0.6,0-1.2,0.1-1.7,0.4c-1.7,1.4-2.3,3.7-1.5,5.8
				c1.2,2.6,3.6,4.5,6.4,5c2.7,0.6,5.5-0.5,7-2.8c0.4-0.7,0.8-1.4,1.2-2.1c0.2-0.5,0.7-0.7,1.2-0.6l0,0c0.9,0.2,1.9,0.2,2.8,0
				c2.1-0.8,4.5,0,5.9,1.8c0.5,0.7,0.8,0.7,1.2-0.1c0.2-0.5,0.4-1,0.5-1.6c0.1-0.7,0.1-1.4,0-2.1c-0.1-1.4-0.1-1.4,1.2-1.6
				c0.2-0.1,0.5-0.1,0.7-0.1c3.7-0.6,7-2.7,9.1-5.8c0.3-0.4,0.2-0.7-0.2-0.9l-1.6-1c-0.7-0.4-0.7-0.6-0.2-1.3
				c1.6-2.2,2.8-4.6,3.5-7.2c0.2-1.1,0.5-1.3,1.7-1.3c0.3,0,0.6,0,0.8,0.1c1.2,0.3,2.3,0.7,3.5,1c0.6,0.2,0.9,0.1,0.8-0.5
				c-0.1-1-0.3-2-0.6-2.9C789.1,622.4,789.3,622.1,789.8,621.7z M695.4,601.3c0.6,0.1,1.3,0.2,1.9,0.1c1.6-0.1,3.2,0.5,4.4,1.6
				c0.8,0.6,1.3,1.5,1.5,2.5c-0.2,1.1-0.6,2.1-1.3,2.9c0,0.1-0.4,0.1-0.6,0.1c-1.2-0.1-2.4-0.6-3.4-1.3c-1.8-1.2-3.1-3-3.5-5.2
				C694.4,601.2,694.5,601.1,695.4,601.3z M691.3,601.7c0.2,0,0.4,0.1,0.6,0.2c0.3,0.2,0.7,0.3,1.1,0.4c0.6,0.1,0.7,0.6,0.9,1
				c0.7,1.9,2,3.6,3.6,4.9c1,0.8,2.3,1.3,3.6,1.4c0.4,0.1,1-0.1,0.9,0.6s-0.5,0.7-1,0.6h-0.3c-3.5,0-6.7-1.9-8.4-5
				c-0.5-1.2-0.9-2.4-1.1-3.6C691.1,602,691.2,601.8,691.3,601.7L691.3,601.7z M701.6,617.9v2.4c0,0.7-0.2,1-0.9,0.9
				c-1.8-0.1-3.5-0.4-5.3-0.7c-1.2-0.4-2.3-1.2-3-2.3c-0.1-0.3-0.1-0.7,0.1-1c0.9-1.3,2.3-2.1,3.9-2.4c1.4-0.2,2.8-0.3,4.2-0.4
				c0.7-0.1,0.9,0.3,0.9,0.9C701.5,616.3,701.6,617.1,701.6,617.9z M700.7,613.6c-1,0-2.1,0-3.1,0.1c-2.5,0.2-4.8,1.6-6.1,3.8
				c-0.1,0.3-0.1,0.6,0,0.9c1.4,2.2,3.8,3.7,6.5,3.8l1.4,0.1c0.2,0,0.7,0,1.1,0s0.8,0,0.9,0.5c0.2,0.5-0.1,1-0.5,1.1h-0.1
				c-0.5,0.2-0.9,0.3-1.4,0.3c-1.8,0.2-3.6,0.2-5.3,0.2c-3.1-0.5-5.5-3.1-5.8-6.2c0-2.5,1.3-4.8,3.5-6c1.7-0.8,3.6-1.1,5.4-0.9
				c1.1,0.1,2.2,0.4,3.4,0.5c0.5,0,0.8,0.4,0.9,0.9C701.7,613.4,701.4,613.6,700.7,613.6z M690.1,603.1c0.5,2.3,1.7,4.4,3.3,6.1
				c0.6,0.6,0.5,0.9-0.4,1.2c-1.6,0.5-2.9,1.5-3.9,2.8c-0.1,0.1-0.2,0.3-0.3,0.4c-0.2,0.1-0.4,0.2-0.6,0.2c-0.1,0-0.1-0.3-0.2-0.5
				c0.4-3.4,0.9-6.8,1.3-10.2c0-0.2,0.2-0.4,0.4-0.6C689.9,602.6,690,602.9,690.1,603.1z M649.7,611.1c0.6-3.3,2.1-6.4,4.4-8.9
				c0.8-0.9,1.9-1.5,3.1-1.5c0.3,0,0.6-0.1,0.9-0.2c0-0.1,0-0.2,0-0.3c-0.3,0-0.6,0-0.9,0c-1.3,0.2-2.6-0.2-3.6-1.1
				c-0.4-0.4-0.5-0.7,0-1.2c2.1-1.9,4.6-3.3,7.4-3.8c0.4,0,0.8,0.1,1.2,0.3c1,0.5,1.9,1.2,2.8,1.7c0.2,0.1,0.4,0.2,0.6,0.2
				c0.2-0.1,0.4-0.1,0.6-0.2c0-0.2-0.1-0.4-0.2-0.5c-0.4-0.3-0.7-0.6-1.1-0.9c-1-0.7-1.7-1.8-1.8-3c0-1,0.4-1.3,1.3-0.9
				c1.2,0.5,2.5,0.5,3.7,0.2c0.7-0.1,1.4-0.2,2.1-0.1c1,0,1.4,0.4,1.5,1.3c0.1,2,1.1,3.9,2.7,5.2c0.2,0.2,0.5,0.3,0.8,0.4
				c0-0.1,0.1-0.1,0.1-0.2c0-0.1-0.1-0.3-0.2-0.4c-0.6-0.5-1-1.2-1-2c-0.1-1.2-0.2-2.4-0.3-3.5c0-2.4,1.5-4.5,3.8-5.2
				c3-0.9,6.3,0.2,8.2,2.8c0.7,1.3,0.6,2.8-0.3,4c-0.3,0.3-0.8,0.5-1.2,0.5c-1.3-0.1-2.5,0.6-3.1,1.8c-0.2,0.3-0.3,0.7-0.3,1
				c0.1,2,1,4.1,3.5,4.3c0.6,0.1,0.7,0.3,0.5,0.9c-0.4,1.7-0.8,3.5-1.2,5.3c-0.2,0.8-0.4,1-1.1,0.7c-0.9-0.4-1.8-0.8-2.5-1.4
				c-1.3-1-2.5-2-3.6-3.1c-2.7-2.8-6.5-4.2-10.4-4c-2.6,0.3-5.1,1.3-7.1,3c-3,2.4-5.3,5.7-6.5,9.4c-0.2,0.8-0.8,1-1.6,0.8
				C650.1,612.3,649.5,611.8,649.7,611.1z M665.9,627.9c0.2-0.1,0.4-0.1,0.6-0.3c2.1-1.8,4.6-3.2,7.2-4c2.2-0.6,4.4-0.9,6.7-0.9h1.8
				c0.5,0,0.8,0.2,0.8,0.7v0.1c0.2,2.2,0.2,2.2-1.7,3.3c-1.9,1-3.6,2.2-5.1,3.6c-2.1,2.1-4.8,3.6-7.7,4.4c-0.9,0.2-1.8,0.2-2.7,0
				c-5.5-1-10.1-4.8-12.1-10c-0.4-1-0.3-1.2,0.8-1.2h2.4c2.8,0,5.5,0.2,8.2,0.8c0.4,0,0.6,0.3,0.6,0.7c0,0,0,0,0,0.1
				c0,0.7,0,1.4,0,2.1C665.7,627.5,665.8,627.7,665.9,627.9z M676.6,618.8c2.2,0.1,3.9,0.3,5.7,0.3c0.4,0,0.7,0.2,0.8,0.6
				c0,0.1,0,0.1,0,0.2c0,0.2,0,0.3,0,0.5c0,1,0,1-1,1.1c-2.5,0.2-5,0.5-7.5,0.9c-2.6,0.6-5,1.7-7.2,3.1c-0.2,0.1-0.4,0.1-0.6,0.1
				c0-0.2-0.2-0.5,0-0.7c0.5-1.2,1-2.4,1.7-3.5c0.7-1.3,2-2.1,3.5-2.3C673.5,619.1,675.3,618.9,676.6,618.8z M668,614
				c-0.6-1-1-2.1-1.4-3.2c0-0.2,0-0.4,0-0.6c0.2,0,0.4,0,0.6,0.1c4,2.6,8.7,4,13.5,4.1c0.6,0,1.1,0.1,1.7,0.1s0.7,0.2,0.8,0.8
				c0.1,1.6,0.1,1.6-1.4,1.7c-1.6,0.1-2.9,0.2-4.7,0.3l-4.5-0.4C670.6,616.6,668.9,615.6,668,614L668,614z M683.1,612.2
				c0,0.9-0.2,1.1-1.2,1.1c-1.3-0.1-2.6-0.1-4-0.2c-2-0.1-4-0.6-6-1.3c-2-0.8-3.8-2-5.4-3.4c-0.2-0.2-0.4-0.3-0.6-0.4
				c0,0-0.1,0-0.2,0v1.7c0,1.8,0,1.8-1.8,2.2c-3.3,0.6-6.6,0.8-9.9,0.5c-0.7,0-0.8-0.3-0.6-0.9c1.4-3.7,4.1-6.7,7.5-8.5
				c1.8-1.1,3.9-1.7,6-1.7c2,0.1,3.9,0.8,5.5,1.9c1.6,1.1,3,2.2,4.5,3.4c1.6,1.3,3.3,2.4,5.2,3.2c0.5,0.1,0.9,0.7,0.8,1.2
				C683.1,611.3,683.1,611.8,683.1,612.2L683.1,612.2z M666.9,614.6c0.2,0,0.5,0.1,0.7,0.2c0.9,0.8,1.8,1.7,2.7,2.5
				c0.5,0.5,0.5,0.7,0,1.1c-0.9,0.8-1.7,1.7-2.7,2.4c-0.2,0.1-0.6,0.3-0.8,0.3c-1.6-0.4-3.1-1.3-4-2.7c-0.1-0.2-0.2-0.4-0.3-0.7
				c0.1-0.2,0.2-0.5,0.4-0.7C663.9,615.9,665.3,615,666.9,614.6L666.9,614.6z M644.6,612.3c0.1-0.1,0.4-0.1,0.7-0.1
				c2.7,0.5,5.4,1.1,8.1,1.5c1.6,0.2,3.2,0.2,4.8,0c2.4-0.3,4.8-0.9,7.2-1.2c0.3-0.1,0.7,0.2,1,0.3c-0.2,0.3-0.3,0.6-0.5,0.7
				c-1.4,0.9-2.7,2.1-3.8,3.4c-0.3,0.3-0.7,0.5-1.1,0.5c-1.7,0-3.4,0-5.2,0c-1.4,0-2.8-0.1-4.2,0c-1.2,0.1-2.3-0.3-3.2-1
				c-1-0.7-2-1.6-3-2.4c-0.3-0.3-0.6-0.7-0.7-1.1C644.6,612.8,644.5,612.5,644.6,612.3z M643.7,621.4c-1.1-0.7-2.1-1.6-2.9-2.7
				c-0.3-0.5-0.3-1.1,0-1.6c0.7-1.1,1.7-2,2.9-2.6c0.3-0.1,0.7-0.1,1,0.1c1,0.9,1.9,1.9,2.9,2.8c0.3,0.2,0.3,0.5,0.1,0.8l-0.1,0.1
				c-0.9,1-1.9,2-2.9,2.9c-0.1,0.1-0.3,0.2-0.5,0.3C644,621.5,643.8,621.5,643.7,621.4z M646.5,623.4c-0.4,0.1-0.9,0.2-1.3,0.3
				c-0.4,0.1-0.8-0.2-0.7-0.7c0.1-0.4,0.3-0.8,0.6-1.1c1.2-1.3,2.6-2.4,4.2-3.1c0.5-0.2,1-0.3,1.5-0.3c1.7-0.1,3.3,0,5,0
				s3.4,0,5.1,0c0.4,0,0.8,0.2,1.1,0.5c1.1,1.3,2.4,2.4,3.7,3.3c0.3,0.2,0.6,0.6,0.5,0.8c-0.2,0.4-0.6,0.4-1.1,0.3
				c-3.6-1.1-7.4-1.5-11.2-1.3C651.5,622.4,649,623,646.5,623.4L646.5,623.4z M684.4,635.1c-2.4,0.2-3.2,2-3.5,3.8
				c-0.1,1.5,0.9,2.8,2.3,3.2c0.3,0.1,0.6,0.1,0.9,0.1c1.1-0.1,2,0.8,2.1,1.9c0.4,1.4-0.1,2.9-1.3,3.8c-1.9,1.8-4.6,2.5-7.1,1.7
				c-2.3-0.6-3.9-2.7-4-5.1c0-1.3,0.2-2.6,0.3-3.8c0-0.7,0.4-1.3,0.9-1.7c0.1-0.1,0.2-0.3,0.3-0.4c0.1-0.1-0.1-0.1-0.1-0.2
				c-0.2,0.1-0.5,0.2-0.7,0.4c-1.4,1-2.3,2.5-2.5,4.2c0,0.2,0,0.4-0.1,0.6c-0.2,1.5-0.7,1.9-2.2,1.8c-0.6-0.1-1.1-0.1-1.7-0.2
				c-1.2-0.3-2.5-0.2-3.7,0.3c-0.7,0.3-1.1,0-1.2-0.8c0-1.1,0.6-2.2,1.4-2.9c0.4-0.4,0.9-0.7,1.2-1c0.1-0.2,0.3-0.5,0.3-0.7
				c-0.3,0-0.6-0.2-0.8-0.1c-1,0.6-2,1.2-3,1.8c-0.4,0.3-1,0.4-1.5,0.3c-2.7-0.6-5.2-1.9-7.2-3.8c-0.6-0.6-0.6-0.8,0-1.2
				c1-0.9,2.4-1.3,3.8-1.1c0.2,0,0.4,0,0.7,0c0-0.1,0-0.1,0-0.2c-0.1,0-0.3-0.2-0.4-0.2c-2.9,0.1-4.1-2.1-5.5-4
				c-1.2-2-2.1-4.1-2.5-6.4c-0.2-0.8,0.2-1.3,1.1-1.5c0.9-0.2,1.4,0,1.7,0.8c1.3,4.2,4,7.8,7.6,10.2c5.5,3.8,12,2.6,16.4-1.7
				c1.5-1.3,3-2.6,4.6-3.8c0.5-0.3,1-0.6,1.6-0.7c0.6-0.2,0.8,0,0.9,0.6c0.2,1.3,0.5,2.7,0.7,4c0.2,0.5,0.4,0.9,0.7,1.3
				C685.1,634.7,684.9,635.1,684.4,635.1L684.4,635.1z M689.6,637.7c-0.1,0.2-0.2,0.3-0.3,0.4c-0.4,0.3-1,1-1.2,0.9
				c-0.5-0.3-1-0.7-1.2-1.3c-0.4-0.9-0.6-1.8-0.8-2.8c-0.9-4.3-1.4-8.6-1.5-13c0-1.3,0-2.7,0-4h-0.3c0.3-4.1,0.5-8.3,0.9-12.4
				c0.4-2.4,0.8-4.8,1.4-7.1c0.2-0.7,0.6-1.5,1.4-1.6c0.8-0.1,1.1,0.7,1.5,1.3c0.4,0.4,0.4,1,0,1.4c-0.9,1.2-1.4,2.6-1.6,4.1
				c-0.5,2.9-0.9,5.8-1,8.7c-0.1,4.5,0,9,0.1,13.5c0.2,2.5,0.5,5,1.1,7.4c0.3,1.1,0.7,2.1,1.3,3
				C689.9,636.7,689.9,637.3,689.6,637.7L689.6,637.7z M690.1,633c0,0.2-0.2,0.3-0.4,0.5c-0.1-0.1-0.3-0.3-0.3-0.4
				c-0.4-3.4-0.9-6.9-1.4-10.4c0.1-0.2,0.1-0.4,0.3-0.5c0.2,0,0.3,0,0.5,0.2c0.3,0.4,0.7,0.8,1,1.2c0.9,1,2,1.7,3.3,2.1
				c0.7,0.2,0.8,0.6,0.3,1.1C691.8,628.4,690.6,630.6,690.1,633L690.1,633z M693.9,632.6c-0.2,0.6-0.4,1-1.2,1.1
				c-0.3,0-0.5,0.3-0.8,0.4c-0.3,0.1-0.4,0.2-0.6,0.2s-0.1-0.3-0.2-0.4c0.2-3.4,2.3-6.3,5.3-7.8c1.5-0.6,3-1,4.7-1.1
				c0.4-0.1,0.8,0.2,0.8,0.5v0.1c0,0.5-0.3,0.6-0.6,0.7c-3.5,0.2-5.4,2.4-7,5.2C694.1,631.9,693.9,632.2,693.9,632.6L693.9,632.6z
				 M703.3,630.5c-0.4,1.7-1.6,3-3.3,3.5c-0.9,0.3-1.8,0.4-2.7,0.7c0-0.1,0-0.2,0-0.3c-0.7,0.1-1.3,0.2-2,0.3
				c-0.5,0.1-0.7-0.1-0.7-0.6c0-1.1,0.4-2.2,1.1-3.1c1.2-2.1,3.4-3.4,5.8-3.7c0.4,0,0.7,0.2,0.9,0.6c0.2,0.4,0.5,1,0.7,1.5
				C703.2,629.8,703.3,630.1,703.3,630.5L703.3,630.5z M707,614.4v12.9c0,0.8-0.5,1.5-1.2,1.8c-0.5,0.2-1.1,0-1.3-0.5l0,0
				c-0.4-0.8-0.6-1.6-0.7-2.4c-0.2-2.6-0.3-5.2-0.3-7.8c0-2.2,0-4.4,0.1-6.6c0.1-1.1,0.3-2.3,0.5-3.4c0-0.1,0-0.2,0-0.3
				c0.3-0.9,0.9-1.4,1.5-1.4c0.8,0.2,1.4,1,1.5,1.8L707,614.4z M719,633.3c-3,1.3-6.5,0.6-8.8-1.7c-1.1-0.9-1.7-2.3-1.8-3.7
				c0-1.2,0-2.4,0-3.6c0-4.9,0-9.9,0-14.8c0-4.6,2.7-7.5,7.3-7.6c2,0,4,0.6,5.6,1.9c1.5,1.1,2.3,2.8,2.2,4.7v9.5
				c0,2.9-0.1,5.8,0,8.6C723.6,630.1,722.2,632.1,719,633.3L719,633.3z M786.5,612.3c0.2,0,0.6-0.1,0.7,0c0.1,0.2,0.1,0.5,0,0.8
				s-0.3,0.7-0.6,1c-1.2,1.3-2.6,2.4-4.2,3.1c-0.5,0.2-1.1,0.3-1.7,0.3c-1.6,0.1-3.2,0-4.8,0s-3.4,0-5.1,0c-0.5,0.1-1-0.2-1.2-0.6
				c-1-1.3-2.2-2.4-3.6-3.3c-0.2-0.2-0.4-0.5-0.5-0.8c0.3-0.1,0.7-0.3,1-0.3c3.6,1.1,7.3,1.5,11,1.2
				C780.5,613.5,783.5,612.8,786.5,612.3L786.5,612.3z M767.3,624.2c3.4-0.7,6.9-0.9,10.4-0.7c0.7,0,0.8,0.3,0.6,0.9
				c-0.5,1.6-1.4,3-2.4,4.3c-2.1,2.5-4.8,4.4-7.9,5.5c-2.4,0.9-5,0.7-7.2-0.5c-2-1-3.8-2.3-5.5-3.8s-3.7-2.8-5.8-3.7
				c-0.6-0.2-1-0.8-0.9-1.5c0,0,0,0,0-0.1c0.1-0.5,0.1-0.9,0.1-1.4c0-0.4,0.2-0.7,0.7-0.7c3.2-0.2,6.5,0.3,9.6,1.2
				c2.4,0.8,4.6,2.1,6.5,3.7l0.5,0.4c0.1,0,0.2-0.1,0.2-0.1c0-0.8,0-1.5,0-2.3C766.1,624.4,766.1,624.5,767.3,624.2L767.3,624.2z
				 M766,608.7c0-0.2-0.1-0.4-0.1-0.8c-0.3,0.1-0.4,0.2-0.6,0.3c-3.3,2.9-7.5,4.6-11.8,4.8c-1.2,0.1-2.5,0.1-3.7,0.2
				c-0.9,0-1-0.2-1.1-1.1c-0.3-1.6,0.3-2.3,1.7-2.9c2.1-1,4-2.4,5.7-4c2-1.8,4.5-3.2,7.1-3.9c1.5-0.3,3.1-0.2,4.5,0.4
				c4.3,1.3,7.8,4.3,9.8,8.3c0.3,0.5,0.5,1,0.7,1.5c0.2,0.6,0,0.9-0.6,0.9c-2.4,0-4.8-0.1-7.2-0.2c-1.2-0.1-2.4-0.4-3.6-0.5
				c-0.5,0-0.9-0.3-0.9-0.8c0-0.1,0-0.2,0-0.2C766.1,610,766.1,609.3,766,608.7L766,608.7z M754.7,617.2l-5.3-0.4
				c-0.4,0-0.7-0.3-0.8-0.6c0-0.1,0-0.1,0-0.2c0-1.7,0-1.4,1.4-1.6c2.1-0.2,4.3-0.4,6.4-0.7c2.8-0.6,5.4-1.7,7.8-3.2
				c0.3-0.1,0.6-0.2,0.9-0.3c0,0.3-0.1,0.7-0.1,1c-0.5,1.2-1,2.3-1.6,3.4c-0.9,1.3-2.3,2.2-3.9,2.3
				C757.8,616.9,756.2,617.1,754.7,617.2L754.7,617.2z M764.5,623.2c0.3,0.6,0.5,1.3,0.7,2c0,0.2,0,0.4-0.1,0.6
				c-0.2,0-0.4,0-0.6-0.1c-2.1-1.4-4.5-2.5-7-3.1c-1.8-0.4-3.6-0.7-5.5-0.9c-0.9-0.1-1.8-0.1-2.7-0.1c-0.5,0-0.7-0.2-0.7-0.7v-0.3
				c0-1.3,0-1.3,1.3-1.4l5.1-0.3c1.2,0.1,2.8,0.2,4.3,0.4C761.8,619.5,763.7,621,764.5,623.2L764.5,623.2z M764.9,621.2
				c-0.2,0.1-0.6-0.1-0.8-0.3c-0.9-0.8-1.7-1.7-2.7-2.4c-0.5-0.4-0.5-0.6,0-1c0.9-0.8,1.8-1.7,2.8-2.5c0.2-0.2,0.5-0.3,0.7-0.3
				c1.7,0.4,3.2,1.4,4.2,2.8c0.1,0.2,0.1,0.4,0.2,0.6c-0.1,0.2-0.2,0.5-0.3,0.7C767.9,620,766.5,620.9,764.9,621.2L764.9,621.2z
				 M747.5,600.9c2.5-0.1,3.7-2.6,3.5-4.5c-0.2-1.3-1.2-2.3-2.5-2.5l-0.5-0.1c-1.4-0.1-2.5-1.3-2.4-2.7c0-0.1,0-0.3,0.1-0.4
				c0.1-1.3,0.9-2.4,2-3.1c2.8-1.9,5.4-2.1,8.2-0.3c1.4,0.9,2.2,2.4,2.2,4.1c0,1.5-0.2,3.1-0.4,4.6c-0.1,0.4-0.4,0.7-0.7,1
				c-0.1,0.2-0.3,0.4-0.5,0.5c0.1,0.1,0.1,0.2,0.1,0.2c0.3-0.1,0.5-0.2,0.8-0.4c1.5-1.1,2.5-2.9,2.7-4.8c0.2-1.4,0.5-1.7,2-1.7
				c0.8,0,1.7,0.1,2.5,0.3c1,0.2,2,0.1,2.9-0.3c0.8-0.3,1.2,0,1.3,0.8c0.2,1.2-0.6,1.9-1.3,2.7c-0.4,0.4-0.9,0.8-1.4,1.2
				c-0.2,0.2-0.3,0.5-0.4,0.8c0.3,0,0.7,0.1,0.9,0c1-0.5,2-1.1,2.9-1.7c0.4-0.3,0.9-0.4,1.4-0.3c2.7,0.6,5.2,1.9,7.2,3.8
				c0.5,0.5,0.5,0.7,0,1.2c-1,0.9-2.3,1.3-3.6,1.1c-0.3,0-0.6,0-0.9,0c0,0,0,0.1,0,0.2c0.2,0.1,0.4,0.2,0.6,0.2
				c2.1-0.1,3.3,1.3,4.5,2.7c1.4,1.9,2.5,4.1,3.1,6.4c0.1,0.3,0.2,0.7,0.3,1.1c0.3,0.9,0,1.4-1,1.7c-0.6,0.3-1.3,0.1-1.6-0.4
				c-0.1-0.1-0.1-0.3-0.1-0.4c-1.4-4.7-4.6-8.6-8.9-10.9c-3.8-2.2-8.4-2.1-12.1,0.3c-1.2,0.8-2.3,1.7-3.4,2.6
				c-1.5,1.1-2.9,2.3-4.4,3.5c-0.4,0.3-0.9,0.5-1.3,0.6c-0.7,0.2-0.9,0-1-0.7c-0.2-1-0.3-2.1-0.5-3.1c-0.2-0.7-0.4-1.5-0.7-2.2
				C746.8,601.2,746.9,600.9,747.5,600.9z M741.6,603.3c0-0.1,0.1-0.2,0.1-0.3c0.1-0.2,0.3-0.3,0.4-0.5c0.1,0.2,0.3,0.4,0.3,0.6
				c0.4,3.2,0.8,6.4,1.2,9.5c0,0.2,0.1,0.5,0.1,0.8c-0.1,0.1-0.1,0.3-0.2,0.3c-0.2,0-0.5-0.1-0.7-0.3c-0.4-0.5-0.9-1.1-1.4-1.5
				c-0.9-0.6-1.9-1.2-2.9-1.6c-0.6-0.3-0.8-0.6-0.3-1.1C740,607.6,741.1,605.6,741.6,603.3L741.6,603.3z M730.3,622.8
				c0-0.4,0.4-0.6,0.7-0.6l0,0h1.8c2.8,0.1,5.5-1.1,7.1-3.4c0.7-0.9,0.7-0.9,0-1.8c-2-2.7-4.8-3.6-8.1-3.5H731c-0.4,0-0.8,0-0.9-0.5
				c-0.1-0.5,0-1,0.6-1.1c0.6-0.2,1.3-0.3,2-0.4c2.4-0.3,4.8-0.5,7,0.7c1.8,1,3.1,2.7,3.5,4.7c0.4,3.8-2.4,7.3-6.2,7.7
				c-0.2,0-0.4,0-0.7,0c-1.8-0.1-3.6-0.4-5.4-0.6c-0.5,0-0.9-0.4-0.8-0.9C730.3,623,730.3,622.9,730.3,622.8L730.3,622.8z
				 M730.3,620.4c0-0.8,0-1.7,0-2.5v-2.5c0-0.4,0-0.8,0.6-0.8c2.3,0.1,4.6,0,6.6,1.2c0.7,0.5,1.3,1,1.9,1.7c0.3,0.3,0.3,0.8,0,1.1
				l0,0c-1,1.3-2.5,2.2-4.1,2.4c-1.4,0.2-2.8,0.2-4.2,0.3C730.5,621.3,730.2,621.1,730.3,620.4L730.3,620.4z M739,602.2
				c0.3-0.1,0.7-0.3,1-0.5c0.2-0.1,0.4-0.1,0.6-0.2c0.1,0.2,0.1,0.4,0.1,0.6c-0.1,1.9-0.9,3.7-2.1,5.2c-1.9,2.2-4.6,3.4-7.5,3.5
				c-0.2,0-0.5,0-0.7,0c-0.2-0.2-0.4-0.4-0.4-0.7c0.1-0.2,0.3-0.4,0.5-0.5c3.2-0.1,5.2-2.1,6.8-4.6c0.4-0.6,0.7-1.3,1-2
				C738.3,602.6,738.6,602.3,739,602.2L739,602.2z M728.6,605.3c0.7-2.1,2.7-3.6,4.9-3.8c1.1,0,2.2-0.2,3.3-0.3
				c0.6,0,0.6,0.3,0.5,0.7c-0.1,1.1-0.5,2.2-1.2,3.1c-1.1,1.6-2.8,2.8-4.7,3.4c-0.3,0.1-0.7,0.1-1,0.2c-0.5,0.1-1-0.3-1-0.8l0,0
				c-0.2-0.5-0.4-0.9-0.6-1.4C728.6,606,728.5,605.7,728.6,605.3z M727.9,627.2c-0.1,0.3-0.2,0.6-0.3,0.9c-0.3,0.6-0.6,1.2-1.4,1.1
				c-0.8-0.2-1.3-0.9-1.4-1.8v-18.7c0-0.8,0.5-1.5,1.2-1.8c0.4-0.2,0.9-0.1,1.2,0.4v0.1c0.4,0.9,0.7,1.8,0.9,2.8
				c0.4,4.1,0.5,8.2,0.2,12.2C728.4,624,728.1,625.6,727.9,627.2L727.9,627.2z M736.4,634.5c-0.7-0.1-1.4-0.2-2.2-0.1
				c-2.5,0.1-4.7-1.4-5.5-3.7c-0.2-0.4-0.1-0.9,0.1-1.3c0.3-0.5,0.5-1,0.7-1.5c0.2-0.6,0.6-0.6,1.2-0.6c1.4,0.2,2.7,0.8,3.7,1.7
				c1.5,1.1,2.5,2.8,2.9,4.6C737.5,634.7,737.3,634.8,736.4,634.5L736.4,634.5z M740.6,634.3c-0.1,0-0.3-0.1-0.5-0.1
				c-0.4-0.2-0.8-0.4-1.2-0.6c-0.3-0.2-0.6-0.6-0.7-0.9c-0.9-2.5-2.8-4.5-5.2-5.7c-0.8-0.3-1.6-0.5-2.4-0.6c-0.4-0.1-0.7,0-0.7-0.6
				c0-0.4,0.2-0.7,0.6-0.7h0.1c2.5,0,5,0.8,7,2.4c1.8,1.5,3,3.8,3.2,6.1c0,0.1,0,0.2,0,0.4C740.7,634.2,740.7,634.3,740.6,634.3
				L740.6,634.3z M741.7,632.8c-0.3-1.6-1-3.1-1.9-4.5c-0.4-0.6-0.9-1.1-1.3-1.6s-0.4-0.9,0.3-1.2c1.6-0.5,3-1.5,4-2.9
				c0.1-0.2,0.2-0.3,0.3-0.4c0.1-0.1,0.4-0.2,0.5-0.1c0.1,0.1,0.2,0.3,0.2,0.3c-0.3,2.4-0.5,4.6-0.8,6.9c-0.1,1.1-0.3,2.2-0.5,3.4
				c-0.1,0.3-0.2,0.5-0.4,0.7C742,633.3,741.7,633.1,741.7,632.8L741.7,632.8z M745.2,637.6L745.2,637.6c-0.4,0.5-0.8,1.1-1.3,1.3
				c-0.3,0.1-0.9-0.5-1.3-0.9c-0.7-0.9-0.7-1.1-0.1-2c0.8-1.3,1.3-2.7,1.5-4.3c0.4-3.1,0.8-6.2,0.9-9.3c0.2-3.7,0-7.4-0.1-11.2
				c-0.1-2.9-0.5-5.7-1.2-8.4c-0.4-1.1-0.8-2.3-1.4-3.3c-0.3-0.4-0.3-1,0-1.5v-0.1c0.4-0.5,0.7-1.2,1.4-1.2s1.1,0.9,1.3,1.6
				c0.5,2,0.9,4,1.3,6c0.7,5,1.1,10,1,15c-0.1,2.3-0.3,6.2-0.7,10C746.4,632.2,745.7,634.9,745.2,637.6L745.2,637.6z M782.1,625.2
				c-0.6,3.5-2.3,6.6-4.8,9.1c-0.5,0.5-1.3,0.9-2,0.9c-0.5,0-0.9,0.1-1.4,0.2c0,0.1,0,0.2,0,0.3c0.2,0,0.5,0,0.7-0.1
				c1.4-0.2,2.9,0.3,3.9,1.3c0.4,0.3,0.4,0.6,0,0.9c-2.1,2.1-4.8,3.4-7.7,4c-0.4,0-0.7-0.1-1.1-0.3c-1-0.5-1.9-1.2-2.8-1.7
				c-0.1-0.1-0.3-0.2-0.4-0.2c-0.2,0-0.5,0.1-0.7,0.2c0.1,0.2,0.1,0.4,0.3,0.6c0.8,0.8,1.7,1.5,2.3,2.4c0.3,0.5,0.5,1.1,0.5,1.7
				c0.1,0.4-0.2,0.8-0.6,0.9c-0.2,0-0.4,0-0.6-0.1c-1.3-0.5-2.8-0.6-4.2-0.2c-0.7,0.2-1.4,0.2-2.1,0.1c-0.9-0.1-1.2-0.4-1.3-1.4
				c-0.1-2-1.1-3.9-2.7-5.1c-0.3-0.2-0.6-0.3-0.9-0.4c0.1,0.3,0.1,0.4,0.1,0.5c1.2,0.9,1.2,2.2,1.3,3.4c0.3,1.7,0.1,3.5-0.6,5
				c-0.7,1.1-1.7,2-3,2.4c-2.8,1-5.9,0.1-7.9-2.1c-0.9-1.2-1.1-2.8-0.5-4.1c0.3-0.7,1-1.1,1.7-1.1c1.3,0.1,2.5-0.6,3-1.7
				c0.2-0.3,0.3-0.6,0.3-0.9c0.2-2.1-1.2-3.9-3.2-4.4c-1.1-0.2-1-0.2-0.7-1.3c0.4-1.6,0.7-3.2,1-4.8c0.1-0.8,0.3-1,1.1-0.7
				c0.9,0.4,1.7,0.8,2.5,1.4c1.2,1,2.5,2.1,3.7,3.2c2.7,2.7,6.5,4.1,10.3,3.8c2.9-0.3,5.6-1.6,7.7-3.6c2.7-2.3,4.7-5.4,5.8-8.7
				c0.1-0.7,0.7-1.1,1.3-1.1c0.2,0,0.3,0.1,0.5,0.2C782,623.7,782.3,624.2,782.1,625.2L782.1,625.2z M786.7,623.8
				c-1.5-0.3-3.1-0.8-4.7-1.1c-3.3-0.7-6.7-0.9-10-0.4c-1.9,0.3-3.7,0.7-5.5,1c-0.3,0-0.7-0.2-1-0.3c0.1-0.2,0.2-0.6,0.5-0.7
				c1.4-0.9,2.6-2,3.7-3.3c0.3-0.3,0.7-0.5,1.2-0.6c1.7-0.1,3.5,0,5.2,0h5.1c0.5,0,0.9,0.1,1.3,0.3c1.6,0.8,3,1.8,4.2,3.1
				c0.3,0.4,0.6,0.8,0.7,1.3C787.5,623.7,787.2,623.9,786.7,623.8L786.7,623.8z M788.1,621.4c-0.3,0.1-0.7,0-1-0.2
				c-1-0.9-2-1.9-2.9-2.9c-0.1-0.2-0.1-0.6,0-0.8c0.9-1,1.9-1.9,2.8-2.9c0.2-0.1,0.4-0.2,0.6-0.3c0.2-0.1,0.4,0.1,0.5,0.1
				c1.2,0.7,2.2,1.7,3,2.9c0.2,0.4,0.2,0.8,0,1.1C790.4,619.7,789.3,620.7,788.1,621.4L788.1,621.4z M720.6,618.3
				c0,2.4-2,4.3-4.4,4.3s-4.3-2-4.3-4.4c0-2.4,2-4.3,4.4-4.3C718.7,614,720.6,616,720.6,618.3L720.6,618.3z M753.6,642.6
				c-1.2,1.4-3,2.1-4.8,1.9c-0.1,0-0.3-0.2-0.4-0.3c0.1-0.1,0.2-0.3,0.3-0.4c0.7-0.3,1.4-0.7,2-1.1c1.8-1.1,2.5-3.4,1.6-5.4
				c-0.1-0.4-0.3-0.8-0.4-1.2C753.4,637.1,755.2,640.6,753.6,642.6z M682.4,643.5c0.2,0.1,0.5,0.2,0.7,0.3c0.2,0.1,0.2,0.3,0.4,0.4
				c-0.2,0.1-0.3,0.3-0.5,0.3c-1.7,0.2-3.5-0.5-4.6-1.8c-0.9-1-1.1-2.4-0.5-3.6c0.4-0.9,0.9-1.8,1.4-2.6c0.2-0.2,0.3-0.3,0.5-0.4
				c0,0,0.1,0,0.2,0.1c-0.1,0.3-0.2,0.6-0.3,0.8c-1.1,2.3-0.2,5,2.1,6.2C682,643.3,682.2,643.4,682.4,643.5L682.4,643.5z
				 M749.5,592.5c-0.3-0.1-0.6-0.3-0.9-0.4c-0.1,0-0.3-0.3-0.2-0.3c0.1-0.1,0.2-0.3,0.3-0.3c1.8-0.2,3.5,0.5,4.7,1.8
				c1,1.2,1.1,2.9,0.3,4.2c-0.3,0.6-0.7,1.2-1.1,1.8c-0.2,0.2-0.4,0.4-0.6,0.6c0-0.1-0.1-0.1-0.1-0.1c0.1-0.3,0.1-0.6,0.2-0.8
				c1.1-2.3,0.2-5-2-6.1C749.9,592.6,749.7,592.6,749.5,592.5z M678.5,598c-0.7-1-1-2.4-0.8-3.6c0.3-1.2,1.2-2.1,2.4-2.5
				c0.9-0.3,1.8-0.4,2.7-0.5c0.2,0,0.4,0.2,0.6,0.3c-0.1,0.2-0.2,0.3-0.4,0.5c-0.7,0.3-1.4,0.7-2,1.1c-1.7,1.2-2.3,3.5-1.4,5.4
				c0.1,0.3,0.3,0.7,0.4,1.1c-0.1,0.1-0.2,0.1-0.3,0.2C679.4,599.3,678.9,598.7,678.5,598z"/>
			<path class="st13" d="M599.7,677.2c1.6-1.3,2.5-3.3,2.4-5.4c0-5.3-5.1-5.7-6.7-5.7H587v1.4h0.4c0.8,0,1.7,0.3,1.7,0.7v20
				c0,0.4-0.9,0.7-1.7,0.7H587v1.4h8.8c4.6,0,7.6-2.9,7.6-7.1C603.6,680.5,602.1,678.1,599.7,677.2z M592.4,668
				c0.8-0.1,1.5-0.1,2.3-0.1c2.7,0,4.1,1.4,4.1,4.3c0,1.3-0.3,4.4-2.8,4.4h-3.6V668z M595.6,688.3c-1.1,0-2.2,0-3.2-0.2v-9.5h3.9
				c1.7,0,3.6,1.3,3.6,4.8C599.9,686.7,598.5,688.3,595.6,688.3z M614.5,688.9v1.2h4.8v-1.2h-0.4c-0.3,0-0.7-0.1-0.9-0.4l-6-16.1
				l-1.1,0.4l-5.4,15.8c0,0-0.1,0.2-1,0.2h-0.4v1.2h4.8v-1.2h-0.4c-0.4,0-0.8,0-1.2-0.2l1.4-4.1h5.2l1.5,4.1
				c-0.2,0.1-0.3,0.1-0.5,0.1h-0.4V688.9z M613.3,683h-4l2-5.7L613.3,683z M620.1,673h5.5v1.2h-0.4c-0.6,0-1,0.2-1,0.3v13.6
				c0,3-1.9,4.3-4.2,5.6l-0.4,0.3l-0.3-1.1l0.2-0.2c1.4-0.8,2.2-2.4,2.2-4v-14.2c0-0.2-0.5-0.3-1-0.3h-0.4L620.1,673z M654.8,688.6
				l-6-16.1l-1.1,0.4l-5.4,15.8c0,0-0.1,0.2-0.9,0.2c-0.8,0-1.6-0.4-2-1l-4-5.1c1.9-1.1,3.2-3.1,3.3-5.3c0-3.1-2.9-4.5-5.8-4.5h-5.8
				v1.2h0.4c0.6,0,1.1,0.2,1.1,0.3v14c0,0.2-0.5,0.3-1.1,0.3h-0.4v1.2h5.8v-1.2h-0.4c-0.9,0-1.3-0.2-1.3-0.3v-4.7
				c0.6,0,1.2-0.1,1.7-0.2l4.2,5.4c0.1,0.1,0.1,0.3,0,0.4l-0.5,0.7h9v-1.2h-0.4c-0.4,0-0.8,0-1.2-0.2l1.4-4.1h5.2l1.5,4.1
				c-0.2,0.1-0.3,0.1-0.5,0.1h-0.3v1.2h4.8v-1.2h-0.4C655.4,688.9,655,688.8,654.8,688.6z M650.1,683h-4l2-5.7L650.1,683z
				 M632.3,674.6c2.4,0,3.6,1,3.6,3.2c0,2.8-1.6,4.2-4.7,4.4v-7.6C631.6,674.6,632,674.5,632.3,674.6L632.3,674.6z M682.4,665.6
				l1.4,4.6l-1.3,0.4l-0.1-0.4c-0.5-1.5-1.1-2.1-2-2.1h-5.2v20c0,0.3,1,0.7,2.4,0.7h0.4v1.4h-9v-1.4h0.4c1.4,0,2.4-0.3,2.4-0.7v-20
				h-5.2c-1,0-1.6,0.6-2,2.1l-0.1,0.4l-1.2-0.4l1.4-4.6l0.5,0.4c0.2,0.1,0.4,0.2,0.6,0.2h15.7c0.2,0,0.4,0,0.6-0.2L682.4,665.6z
				 M695.6,686.8l1.2,0.4l-0.9,3h-10.7V689h0.4c0.6,0,1.1-0.2,1.1-0.3v-14c0-0.2-0.5-0.3-1.1-0.3h-0.4v-1.2h10.6l0.9,3l-1.2,0.4
				l-0.1-0.4c-0.4-1.1-0.7-1.4-1.2-1.4h-4.8v5.8h3.7c0.1,0,0.3-0.4,0.3-1.3v-0.5h1.2v5.1h-1.2v-0.4c0-0.9-0.2-1.3-0.3-1.3h-3.8v6.3
				h5c0.5,0,0.9-0.2,1.3-1.4V686.8z M711.5,686.2l0.8,1.2l-0.2,0.2c-1.4,1.8-3.5,2.8-5.8,2.7c-4.6,0.2-8.4-3.4-8.5-7.9
				c0-0.3,0-0.5,0-0.8c-0.2-4.7,3.4-8.6,8-8.8c0.2,0,0.5,0,0.7,0c1.1,0,2.2,0.2,3.2,0.6c0.7,0.2,0.8,0.2,0.9,0.1l0.2-0.4l1,0.5
				l-1.2,4.2l-1-0.5V677c0.2-1.2,0.1-1.7-0.5-2c-0.8-0.4-1.7-0.6-2.6-0.5c-3.6,0-5.9,2.6-5.9,6.6c0,4.3,2.6,7.5,6.3,7.5
				c1.7,0.1,3.2-0.7,4.3-1.9L711.5,686.2z M724.2,673h5.3v1.2h-0.4c-0.6,0-1.1,0.2-1.1,0.3v14.1c0,0.2,0.5,0.3,1.1,0.3h0.4v1.2h-5.3
				v-1.2h0.4c0.1,0,0.8,0,0.8-0.3v-6.7h-7.8v6.7c0,0.3,0.7,0.3,0.8,0.3h0.4v1.2h-5.3v-1.2h0.4c0.6,0,1.1-0.2,1.1-0.3v-14
				c0-0.2-0.5-0.3-1.1-0.3h-0.4v-1.2h5.3v1.2h-0.5c-0.1,0-0.8,0-0.8,0.3v5.7h7.8v-5.7c0-0.3-0.7-0.3-0.8-0.3h-0.4L724.2,673z
				 M742.4,673h5.1v1.2h-0.4c-0.5,0-1,0.2-1,0.3v15.7h-1l-0.1-0.1l-10.6-12.6v11.1c0,0.1,0.4,0.3,1.6,0.3h0.4v1.2h-5.2v-1.2h0.4
				c0.6,0,1.1-0.2,1.1-0.3v-14c0-0.1-0.5-0.3-1.1-0.3h-0.4v-1.2h2.8l10.3,12.2v-10.7c0-0.1-0.4-0.3-1.5-0.3h-0.4L742.4,673z
				 M757.3,672.8c-4.6-0.1-8.4,3.5-8.6,8.1c0,0.2,0,0.4,0,0.6c0,5.1,3.5,8.9,8.2,8.9c4.7,0.1,8.5-3.7,8.6-8.3c0-0.1,0-0.2,0-0.3
				C765.5,676.6,762,672.8,757.3,672.8z M762.8,682.2c0,5.8-3.7,6.4-5.3,6.4c-3.6,0-5.9-3-5.9-7.7c0-5.8,3.7-6.4,5.3-6.4
				C760.4,674.5,762.8,677.5,762.8,682.2L762.8,682.2z M777.1,686.8l1.2,0.4l-0.9,3H767V689h0.4c0.6,0,1.1-0.2,1.1-0.3v-14
				c0-0.2-0.5-0.3-1.1-0.3H767v-1.2h5.8v1.2h-0.4c-0.9,0-1.4,0.2-1.4,0.3v13.9h4.7c0.5,0,0.9-0.2,1.2-1.3L777.1,686.8z M787,672.8
				c-4.6-0.1-8.4,3.5-8.6,8.1c0,0.2,0,0.4,0,0.6c0,5.1,3.5,8.9,8.2,8.9c4.7,0.1,8.5-3.7,8.6-8.3c0-0.1,0-0.2,0-0.3
				C795.2,676.6,791.6,672.8,787,672.8z M792.4,682.2c0,5.8-3.7,6.4-5.3,6.4c-3.6,0-5.9-3-5.9-7.7c0-5.8,3.7-6.4,5.3-6.4
				C790.1,674.5,792.4,677.5,792.4,682.2L792.4,682.2z M807.1,681.6h5.6v1.2h-0.4c-0.5,0-0.5,0.2-0.5,0.3v3.5c0,0.3,0,0.6,0.2,0.9
				l0.1,0.3l-0.2,0.2c-1.8,1.6-4.2,2.3-6.6,2.2c-4.9,0-8.4-3.7-8.4-8.9c0-5.9,4.6-8.7,8.9-8.7c1.2,0,2.5,0.3,3.6,0.8
				c0.2,0.1,0.2,0.1,0.3-0.1l0.1-0.2h1v4.4l-1.2-0.5v-0.2c-0.2-2.1-2.9-2.4-4-2.4c-1.8,0-6,0.6-6,6.4c0,4.5,2.5,7.7,6.2,7.7
				c1.3,0,2.5-0.3,3.6-0.9v-4c0-0.7-1.3-0.8-1.8-0.9h-0.4L807.1,681.6z M814,673h5.4v1.2H819c-0.5,0-1,0.2-1,0.3v14
				c0,0.2,0.5,0.3,1,0.3h0.4v1.2H814v-1.2h0.4c0.5,0,1-0.2,1-0.3v-14.1c0-0.2-0.5-0.3-1-0.3H814V673z M831.6,686.8l1.2,0.4l-0.9,3
				h-10.7V689h0.4c0.6,0,1.1-0.2,1.1-0.3v-14c0-0.2-0.5-0.3-1.1-0.3h-0.4v-1.2h10.6l0.9,3l-1.2,0.4l-0.1-0.4
				c-0.4-1.1-0.8-1.4-1.3-1.4h-4.8v5.8h3.8c0.1,0,0.3-0.4,0.3-1.3v-0.4h1.2v5.1h-1.2v-0.4c0-0.9-0.2-1.3-0.3-1.3h-3.8v6.4h4.9
				c0.5,0,0.9-0.2,1.3-1.4L831.6,686.8z M845,685.4c0,2.8-2.4,5-5.7,5c-1.1,0-2.2-0.3-3.2-0.8c-0.8-0.4-0.8-0.3-1-0.1l-0.2,0.3
				l-1-0.4l1.4-4.6l1,0.4l-0.1,0.3c-0.2,0.7,0,1.5,0.5,2.1c0.6,0.7,1.6,1.1,2.5,1c2.5,0,3.1-1.4,3.1-2.6c0-2.2-2.1-3.3-3.9-4.3
				l-0.7-0.4c-1.5-0.9-3-2-3-4.3c-0.1-1.1,0.3-2.1,1.1-2.9c1-0.9,2.3-1.5,3.7-1.4c0.9,0,1.7,0.2,2.5,0.5c0.7,0.3,0.7,0.2,0.8,0
				l0.2-0.4l1,0.4l-1.2,3.9l-1-0.5l0.1-0.3c0.1-0.4,0-0.9-0.2-1.3c-0.6-0.6-1.4-0.8-2.1-0.8c-1.5,0-2.3,0.7-2.3,2.1
				c0,1.4,0.8,1.9,2.7,3l0.8,0.5C843,681.4,845,682.8,845,685.4z"/>
		</g>
		<text transform="matrix(1 0 0 1 893.2852 651.8717)" class="st14 st15">&amp;</text>
	</g>
	<g>
		
			<image style="overflow:visible;enable-background:new    ;" width="493" height="485" xlink:href="3455A107.png"  transform="matrix(0.1201 0 0 0.1201 1031.6053 720.4609)">
		</image>
		<g>
			<g>
				<g>
					<path d="M836.1,738.5h1.9l-0.3,2.3h0.1c1.5-1.4,3.4-2.6,5.4-2.6c3.1,0,5,2.1,5,5.9c0,5.3-3.3,9.6-8.1,9.6
						c-1.9,0-3.5-0.9-4.4-2.1h-0.1l-0.5,3.2l-0.9,4.8h-2.3L836.1,738.5z M846,744.3c0-2.9-1.4-4.2-3.4-4.2c-1.5,0-3.4,1.1-5,2.8
						l-1.4,6.6c1,1.5,2.5,2.1,3.9,2.1C843.5,751.6,846,748.3,846,744.3z"/>
					<path d="M851.7,747.1c0-5.2,4-9,8.5-9c3.9,0,6.2,2.6,6.2,6.5c0,5.2-4,9-8.5,9C854,753.6,851.7,750.9,851.7,747.1z M864,744.7
						c0-2.9-1.5-4.7-4-4.7c-3.1,0-6,3.1-6,6.9c0,2.9,1.5,4.7,4,4.7C861.2,751.6,864,748.5,864,744.7z"/>
					<path d="M870,738.5h2.3l0.1,8.7c0,1.4,0,2.6-0.1,4h0.1c0.5-1.4,0.9-2.7,1.5-4.1l3.4-7.9h2.4l0.3,7.9c0.1,1.4,0,2.7,0,4.1h0.1
						c0.5-1.4,1-2.6,1.5-4l3.5-8.7h2.2l-6.2,14.8h-2.9l-0.2-7.6c0-1.4,0-2.5,0-4h0c-0.5,1.6-0.9,2.6-1.5,4l-3.2,7.6h-3L870,738.5z"
						/>
					<path d="M888.7,747.2c0-5.3,4-9.1,8.4-9.1c3.6,0,5.6,2.4,5.6,5.7c0,1-0.2,2.2-0.4,2.6h-11.9l0.3-1.8h10.5l-1,0.5
						c0.1-0.4,0.2-0.9,0.2-1.4c0-2.3-1.4-3.7-3.6-3.7c-2.9,0-6,2.9-6,7.1c0,3,1.8,4.7,4.4,4.7c1.9,0,3.7-0.8,5-1.9l0.9,1.6
						c-1.5,1.2-3.8,2.2-6.4,2.2C891.2,753.6,888.7,751.3,888.7,747.2z"/>
					<path d="M910.9,738.4h1.9l-0.6,4.2h0.1c1.7-2.5,4-4.6,6.6-4.6c1.3,0,2.3,0.3,3,0.8l-0.9,2c-0.8-0.5-1.5-0.6-2.5-0.6
						c-2.3,0-4.7,2.2-6.7,5.3l-1.6,7.7H908L910.9,738.4z"/>
					<path d="M925.2,747.2c0-5.3,4-9.1,8.4-9.1c3.6,0,5.6,2.4,5.6,5.7c0,1-0.2,2.2-0.4,2.6H927l0.3-1.8h10.5l-1,0.5
						c0.1-0.4,0.2-0.9,0.2-1.4c0-2.3-1.4-3.7-3.6-3.7c-2.9,0-6,2.9-6,7.1c0,3,1.8,4.7,4.4,4.7c1.9,0,3.7-0.8,5-1.9l0.9,1.6
						c-1.5,1.2-3.8,2.2-6.4,2.2C927.7,753.6,925.2,751.3,925.2,747.2z"/>
					<path d="M943.1,747.9c0-5.3,3.6-9.8,8.1-9.8c2.1,0,3.6,0.9,4.4,2.2h0.1l0.5-2.9l1.2-5.8h2.3l-4.4,21.6h-1.9l0.2-2.2h-0.1
						c-1.6,1.6-3.5,2.6-5.4,2.6C945.1,753.6,943.1,751.6,943.1,747.9z M953.9,748.8l1.4-6.5c-1-1.6-2.4-2.2-3.8-2.2
						c-3.4,0-6,3.6-6,7.5c0,2.8,1.3,4,3.4,4C950.5,751.6,952.3,750.6,953.9,748.8z"/>
					<path d="M981.7,751.4L981.7,751.4l-0.6,1.9h-1.9l4.3-21.6h2.3l-1.2,5.8l-0.8,3.3h0.1c1.5-1.4,3.4-2.5,5.3-2.5
						c3.1,0,5.1,2.1,5.1,5.9c0,5.3-3.5,9.6-8.1,9.6C984.3,753.6,982.6,752.7,981.7,751.4z M991.9,744.3c0-2.9-1.4-4.2-3.4-4.2
						c-1.5,0-3.4,1.1-5,2.8l-1.3,6.6c1,1.5,2.4,2.1,3.8,2.1C989.4,751.6,991.9,748.3,991.9,744.3z"/>
					<path d="M994.9,759l0.7-1.7c0.5,0.2,1.1,0.4,1.8,0.4c1.8,0,2.8-0.8,4.3-3l0.9-1.4l-3.6-14.8h2.3l1.9,8.2
						c0.3,1.3,0.6,3.2,0.9,4.5h0.1c0.7-1.3,1.7-3.2,2.5-4.5l5-8.2h2.4l-10,16.3c-2,3.3-3.7,4.8-6.7,4.8
						C996.3,759.6,995.5,759.4,994.9,759z"/>
				</g>
			</g>
		</g>
	</g>
	<g>
		<g>
			<path d="M751,519.5h5.1v5.1H751V519.5z M751,529.9h5.1v25.9H751V529.9z"/>
			<path d="M763.8,529.9h5.1v25.9h-5.1V529.9z M779.6,540.1c0-1.8-0.5-3.2-1.4-4.2s-2.3-1.5-4-1.5s-3,0.4-3.9,1.3
				c-0.9,0.9-1.4,2.1-1.4,3.7l-0.5-5c0.8-1.6,1.8-2.8,3.1-3.6s2.7-1.3,4.3-1.3c2.8,0,5,0.9,6.5,2.8c1.5,1.8,2.3,4.4,2.3,7.8v15.7
				h-5.1v-15.7H779.6z"/>
			<path d="M807.2,554.2c-1.6-1.3-2.4-3.3-2.4-6c0-2.6,0.7-4.5,2.2-5.8c1.4-1.3,3.6-1.9,6.6-1.9h7.4l0.3,4.1h-7.7
				c-1.3,0-2.3,0.3-3,0.9c-0.7,0.6-1,1.5-1,2.7c0,1.3,0.4,2.3,1.3,2.9c0.9,0.6,2.2,0.9,4,0.9c1.9,0,3.4-0.2,4.4-0.6
				c1-0.4,1.4-1.1,1.4-1.9l0.5,3.6c-0.4,0.7-1,1.3-1.7,1.7c-0.7,0.4-1.4,0.8-2.3,1c-0.9,0.2-1.8,0.3-2.9,0.3
				C811.2,556.2,808.8,555.5,807.2,554.2z M820.7,539.4c0-1.7-0.5-3-1.4-4c-0.9-0.9-2.2-1.4-3.9-1.4c-1,0-2,0.2-3,0.5
				s-1.9,0.8-2.6,1.3l-3.7-2.5c1-1.2,2.3-2.1,3.9-2.8c1.6-0.7,3.4-1,5.4-1c2.1,0,4,0.4,5.5,1.1c1.5,0.8,2.7,1.9,3.5,3.3
				c0.8,1.4,1.2,3.2,1.2,5.2v16.7h-4.8v-16.4H820.7z"/>
			<path d="M840.2,556.2c0,0-0.7-0.1-2-0.4s-2.6-0.7-3.8-1.3s-2.2-1.3-3.2-2.2l3-3.7c1.4,1.1,2.8,1.9,4.2,2.4s2.7,0.8,4.1,0.8
				c2,0,3.5-0.3,4.5-0.9c1-0.6,1.5-1.6,1.5-2.8c0-0.8-0.3-1.5-0.8-1.9c-0.5-0.4-1.2-0.7-2-0.8s-2-0.3-3.4-0.4c-0.1,0-0.3,0-0.4,0
				c-0.1,0-0.3,0-0.4,0c-0.1,0-0.1,0-0.2,0c-0.1,0-0.1,0-0.2,0c-1.7-0.1-3.1-0.4-4.3-0.7c-1.2-0.4-2.1-1-2.9-2
				c-0.8-1-1.2-2.4-1.2-4.2c0-1.8,0.4-3.4,1.1-4.6s1.9-2.1,3.3-2.7c1.4-0.6,3.3-0.9,5.6-0.9c1.3,0,2.6,0.1,3.9,0.4
				c1.2,0.3,2.4,0.6,3.5,1.1s2.2,1.1,3.2,1.9l-3.1,3.7c-1.3-0.8-2.6-1.5-3.8-1.9c-1.2-0.4-2.5-0.6-3.7-0.6c-1.7,0-3,0.3-3.9,0.9
				c-0.9,0.6-1.3,1.5-1.3,2.7c0,0.7,0.2,1.2,0.7,1.6c0.5,0.3,1.1,0.6,1.9,0.7c0.7,0.1,1.8,0.2,3.2,0.3c0.1,0,0.2,0,0.3,0
				s0.2,0,0.3,0s0.1,0,0.1,0h0.1c1.8,0.1,3.4,0.4,4.6,0.7c1.3,0.4,2.3,1.1,3.2,2.2c0.9,1.1,1.3,2.6,1.3,4.7c0,1.9-0.4,3.4-1.2,4.6
				s-2,2.1-3.6,2.8c-1.6,0.6-3.6,0.9-6.1,0.9C841,556.2,840.2,556.2,840.2,556.2z"/>
			<path d="M866.7,556.2c0,0-0.7-0.1-2-0.4s-2.6-0.7-3.8-1.3s-2.2-1.3-3.2-2.2l3-3.7c1.4,1.1,2.8,1.9,4.2,2.4s2.7,0.8,4.1,0.8
				c2,0,3.5-0.3,4.5-0.9c1-0.6,1.5-1.6,1.5-2.8c0-0.8-0.3-1.5-0.8-1.9c-0.5-0.4-1.2-0.7-2-0.8s-2-0.3-3.4-0.4c-0.1,0-0.3,0-0.4,0
				c-0.1,0-0.3,0-0.4,0c-0.1,0-0.1,0-0.2,0c-0.1,0-0.1,0-0.2,0c-1.7-0.1-3.1-0.4-4.3-0.7c-1.2-0.4-2.1-1-2.9-2
				c-0.8-1-1.2-2.4-1.2-4.2c0-1.8,0.4-3.4,1.1-4.6s1.9-2.1,3.3-2.7c1.4-0.6,3.3-0.9,5.6-0.9c1.3,0,2.6,0.1,3.9,0.4
				c1.2,0.3,2.4,0.6,3.5,1.1s2.2,1.1,3.2,1.9l-3.1,3.7c-1.3-0.8-2.6-1.5-3.8-1.9c-1.2-0.4-2.5-0.6-3.7-0.6c-1.7,0-3,0.3-3.9,0.9
				c-0.9,0.6-1.3,1.5-1.3,2.7c0,0.7,0.2,1.2,0.7,1.6c0.5,0.3,1.1,0.6,1.9,0.7c0.7,0.1,1.8,0.2,3.2,0.3c0.1,0,0.2,0,0.3,0
				s0.2,0,0.3,0s0.1,0,0.1,0h0.1c1.8,0.1,3.4,0.4,4.6,0.7c1.3,0.4,2.3,1.1,3.2,2.2c0.9,1.1,1.3,2.6,1.3,4.7c0,1.9-0.4,3.4-1.2,4.6
				s-2,2.1-3.6,2.8c-1.6,0.6-3.6,0.9-6.1,0.9C867.5,556.2,866.7,556.2,866.7,556.2z"/>
			<path d="M890.5,554.8c-1.6-0.9-2.8-2.2-3.7-3.9c-0.8-1.7-1.3-3.7-1.3-6.1v-4.2c0-2.3,0.4-4.4,1.3-6c0.8-1.7,2.1-2.9,3.7-3.8
				c1.6-0.9,3.5-1.3,5.8-1.3s4.2,0.4,5.8,1.3c1.6,0.9,2.8,2.1,3.7,3.8c0.9,1.7,1.3,3.7,1.3,6v4.3c0,2.4-0.4,4.4-1.3,6.1
				c-0.8,1.7-2.1,3-3.7,3.8c-1.6,0.9-3.5,1.3-5.8,1.3S892.1,555.7,890.5,554.8z M900.4,549.6c1-1.1,1.5-2.7,1.5-4.7v-4.3
				c0-2-0.5-3.6-1.5-4.7c-1-1.1-2.4-1.6-4.1-1.6c-1.8,0-3.2,0.5-4.1,1.6c-0.9,1.1-1.5,2.7-1.5,4.7v4.3c0,2,0.5,3.6,1.5,4.7
				c1,1.1,2.4,1.7,4.1,1.7C898.1,551.3,899.4,550.8,900.4,549.6z"/>
			<path d="M921.1,556.2c0,0-0.8-0.4-2.5-1.3c-1.7-0.9-3-2.2-3.8-3.8c-0.9-1.7-1.3-3.7-1.3-6.1v-4.3c0-2.3,0.4-4.4,1.3-6
				c0.9-1.7,2.2-2.9,3.8-3.8c1.7-0.9,3.7-1.3,6.1-1.3c1.3,0,2.6,0.2,3.8,0.5s2.3,0.8,3.2,1.4c0.9,0.6,1.7,1.4,2.4,2.2l-3.7,3.3
				c-0.7-0.8-1.6-1.5-2.6-1.9c-1-0.4-2-0.7-3.1-0.7c-2,0-3.5,0.5-4.6,1.6c-1.1,1.1-1.6,2.6-1.6,4.6v4.3c0,2,0.5,3.6,1.6,4.7
				c1.1,1.1,2.6,1.7,4.6,1.7c1.1,0,2.1-0.2,3.1-0.7s1.8-1.2,2.5-2l3.7,3.5c-0.6,0.9-1.4,1.6-2.4,2.2c-1,0.6-2,1.1-3.2,1.4
				s-2.5,0.5-3.8,0.5C922.3,556.2,921.1,556.2,921.1,556.2z"/>
			<path d="M939.7,519.5h5.1v5.1h-5.1V519.5z M939.7,529.9h5.1v25.9h-5.1V529.9z"/>
			<path d="M953.6,554.2c-1.6-1.3-2.4-3.3-2.4-6c0-2.6,0.7-4.5,2.2-5.8c1.4-1.3,3.6-1.9,6.6-1.9h7.4l0.3,4.1H960
				c-1.3,0-2.3,0.3-3,0.9c-0.7,0.6-1,1.5-1,2.7c0,1.3,0.4,2.3,1.3,2.9c0.9,0.6,2.2,0.9,4,0.9c1.9,0,3.4-0.2,4.4-0.6
				c1-0.4,1.4-1.1,1.4-1.9l0.5,3.6c-0.4,0.7-1,1.3-1.7,1.7c-0.7,0.4-1.4,0.8-2.3,1c-0.9,0.2-1.8,0.3-2.9,0.3
				C957.6,556.2,955.2,555.5,953.6,554.2z M967.1,539.4c0-1.7-0.5-3-1.4-4s-2.2-1.4-3.9-1.4c-1,0-2,0.2-3,0.5s-1.9,0.8-2.6,1.3
				l-3.7-2.5c1-1.2,2.3-2.1,3.9-2.8c1.6-0.7,3.4-1,5.4-1c2.1,0,4,0.4,5.5,1.1c1.5,0.8,2.7,1.9,3.5,3.3c0.8,1.4,1.2,3.2,1.2,5.2v16.7
				h-4.8v-16.4H967.1z"/>
			<path d="M977.7,529.9h11.7v4.6h-11.7V529.9z M981.9,554.2c-1-1.2-1.5-2.9-1.5-5.1v-26.7h5.1v26.8c0,0.6,0.1,1.1,0.4,1.5
				c0.3,0.3,0.6,0.5,1.1,0.5h2.4v4.8h-2.9C984.4,555.9,982.8,555.3,981.9,554.2z"/>
			<path d="M996.4,519.5h5.1v5.1h-5.1V519.5z M996.4,529.9h5.1v25.9h-5.1V529.9z"/>
			<path d="M1013.4,554.8c-1.6-0.9-2.8-2.2-3.7-3.9c-0.8-1.7-1.3-3.7-1.3-6.1v-4.2c0-2.3,0.4-4.4,1.3-6c0.8-1.7,2.1-2.9,3.7-3.8
				c1.6-0.9,3.5-1.3,5.8-1.3s4.2,0.4,5.8,1.3c1.6,0.9,2.8,2.1,3.7,3.8c0.8,1.7,1.3,3.7,1.3,6v4.3c0,2.4-0.4,4.4-1.3,6.1
				c-0.8,1.7-2.1,3-3.7,3.8c-1.6,0.9-3.5,1.3-5.8,1.3S1015,555.7,1013.4,554.8z M1023.3,549.6c1-1.1,1.5-2.7,1.5-4.7v-4.3
				c0-2-0.5-3.6-1.5-4.7c-1-1.1-2.4-1.6-4.1-1.6c-1.8,0-3.2,0.5-4.1,1.6c-0.9,1.1-1.5,2.7-1.5,4.7v4.3c0,2,0.5,3.6,1.5,4.7
				c1,1.1,2.4,1.7,4.1,1.7S1022.3,550.8,1023.3,549.6z"/>
			<path d="M1037.1,529.9h5.1v25.9h-5.1V529.9z M1052.8,540.1c0-1.8-0.5-3.2-1.4-4.2s-2.3-1.5-4-1.5s-3,0.4-3.9,1.3
				c-0.9,0.9-1.4,2.1-1.4,3.7l-0.5-5c0.8-1.6,1.8-2.8,3.1-3.6c1.3-0.8,2.7-1.3,4.3-1.3c2.8,0,5,0.9,6.5,2.8c1.5,1.8,2.3,4.4,2.3,7.8
				v15.7h-5.1L1052.8,540.1L1052.8,540.1z"/>
			<path d="M1077.1,529.9h5.3l4.6,18.5l6.5-18.5h3.5l6.5,18.5l4.6-18.5h5.3l-8,25.9h-3.8l-6.3-17.9l-6.3,17.9h-3.8L1077.1,529.9z"/>
			<path d="M1118.9,519.5h5.1v5.1h-5.1V519.5z M1118.9,529.9h5.1v25.9h-5.1V529.9z"/>
			<path d="M1129.8,529.9h11.7v4.6h-11.7V529.9z M1133.9,554.2c-1-1.2-1.5-2.9-1.5-5.1v-26.7h5.1v26.8c0,0.6,0.1,1.1,0.4,1.5
				c0.3,0.3,0.6,0.5,1.1,0.5h2.4v4.8h-2.9C1136.4,555.9,1134.9,555.3,1133.9,554.2z"/>
			<path d="M1148.4,519.5h5.1v36.3h-5.1V519.5z M1164.2,540.1c0-1.8-0.5-3.2-1.4-4.2s-2.3-1.5-4-1.5s-3,0.4-3.9,1.3
				c-0.9,0.9-1.4,2.1-1.4,3.7l-0.5-5c0.8-1.5,1.8-2.7,3.1-3.6c1.3-0.8,2.7-1.3,4.3-1.3c2.8,0,5,0.9,6.5,2.8c1.5,1.8,2.3,4.4,2.3,7.8
				v15.7h-5.1L1164.2,540.1L1164.2,540.1z"/>
		</g>
	</g>
</g>
<image style="overflow:visible;" width="1908" height="1552" xlink:href="Job fair.png"  transform="matrix(0.1296 0 0 0.1296 836.3556 0)">
</image>
</svg>
